<?xml version="1.0" encoding="UTF-8"?>
<svg xmlns="http://www.w3.org/2000/svg" xmlns:xlink="http://www.w3.org/1999/xlink" viewBox="0 0 500 500">
  <defs>
    <style>
      .cls-1, .cls-2 {
        opacity: .7;
      }

      .cls-3, .cls-4, .cls-5, .cls-2 {
        fill: #fff;
      }

      .cls-6 {
        fill: #bfbfbf;
      }

      .cls-6, .cls-7, .cls-5, .cls-8, .cls-9 {
        stroke: #263238;
      }

      .cls-6, .cls-8 {
        stroke-miterlimit: 10;
      }

      .cls-10 {
        opacity: .4;
      }

      .cls-10, .cls-11, .cls-12, .cls-13, .cls-4, .cls-14, .cls-15, .cls-2, .cls-16, .cls-17 {
        stroke-width: 0px;
      }

      .cls-10, .cls-12, .cls-13, .cls-14, .cls-16, .cls-17 {
        fill: #92e3a9;
      }

      .cls-18 {
        clip-path: url(#clippath-2);
      }

      .cls-11, .cls-8, .cls-9 {
        fill: none;
      }

      .cls-19 {
        clip-path: url(#clippath-1);
      }

      .cls-12 {
        opacity: .3;
      }

      .cls-13 {
        opacity: .6;
      }

      .cls-7 {
        fill: #999;
      }

      .cls-7, .cls-5, .cls-9 {
        stroke-linecap: round;
        stroke-linejoin: round;
      }

      .cls-15 {
        fill: #263238;
      }

      .cls-20 {
        clip-path: url(#clippath);
      }

      .cls-16 {
        opacity: .15;
      }

      .cls-17 {
        opacity: .5;
      }
    </style>
    <clipPath id="clippath">
      <path class="cls-5" d="m50.41,309.94s-13.85-2.04-14.55,6.17c-.7,8.21,9.04,26.87,23.06,24.23v-4.75s-13.67,2.58-17.35-14.98c-2.04-9.72,10.96-4.5,10.96-4.5l-2.11-6.17Z"/>
    </clipPath>
    <clipPath id="clippath-1">
      <path class="cls-5" d="m91.66,340.34v.02c-3.93,3.22-9.24,5.32-16.38,5.32-30.97,0-27.47-39.68-27.47-39.68h54.93s2.08,23.51-11.09,34.34Z"/>
    </clipPath>
    <clipPath id="clippath-2">
      <polygon class="cls-5" points="98.32 349.04 49.17 349.04 37.04 344.47 110.45 344.47 98.32 349.04"/>
    </clipPath>
  </defs>
  <g id="Background_Simple" data-name="Background Simple">
    <path class="cls-2" d="m67.93,167.09s-27.88,71.99,11.3,144.5c39.17,72.52,119.88,110.8,184.47,143.55,64.59,32.75,131.66,16.8,163.53-36.84,31.87-53.64-11.85-91.93-11.9-168.42-.05-76.49,11.45-96.74-29.96-161.36C343.96,23.89,242.31,9.59,165.47,57.52c-76.84,47.93-97.54,109.56-97.54,109.56Z"/>
    <g>
      <path class="cls-14" d="m233.27,45c124.04-11.05,124.24,58.93,180.13,124.13,55.89,65.2,67.85,94.75,46.78,169.91-21.07,75.15-92.06,134.07-179.89,100.69-87.83-33.38-138.14-1.32-193.54-30.97-55.4-29.64-75.97-86.91-35.42-154.41,40.55-67.5,29-195.73,181.94-209.35Z"/>
      <path class="cls-2" d="m233.27,45c124.04-11.05,124.24,58.93,180.13,124.13,55.89,65.2,67.85,94.75,46.78,169.91-21.07,75.15-92.06,134.07-179.89,100.69-87.83-33.38-138.14-1.32-193.54-30.97-55.4-29.64-75.97-86.91-35.42-154.41,40.55-67.5,29-195.73,181.94-209.35Z"/>
    </g>
  </g>
  <g id="World">
    <g>
      <g>
        <path class="cls-9" d="m305.8,188.32c-1.39,2.64-2.94,5.14-4.63,7.48-9.11,12.67-22.33,21.14-36.81,24.53-7.18,1.68-14.68,2.12-22.15,1.19-7.36-.91-14.68-3.15-21.63-6.81-1.39-.73-2.74-1.51-4.05-2.33-1.31-.81-2.57-1.66-3.79-2.56-1.48-1.07-2.9-2.21-4.26-3.4,0,0,0-.01-.02-.02-.08-.07-.17-.14-.24-.22-.02-.02-.03-.02-.03-.02-8-7.06-13.91-15.91-17.45-25.62-1.45-3.98-2.51-8.11-3.13-12.33-1.93-12.83.08-26.37,6.59-38.72,9.63-18.28,26.97-29.86,45.9-32.88,13-2.08,26.78-.12,39.32,6.5,11.85,6.25,20.9,15.74,26.61,26.82,9.15,17.69,9.78,39.43-.22,58.4Z"/>
        <path class="cls-9" d="m306.02,129.92c-.68.6-1.78.79-3.52.25-6.25-1.93-9.5,5.09-8.4,5.17,1.1.07,1.86,3.24-.38,4.76-2.25,1.53-7.5,1.02-7.15,2.57.35,1.56,2.92,5.47,2.92,5.47,0,0,2.3-1.08,2.96.27.65,1.35,1.39,5-.3,5.66-1.68.67-1.32,2.5-1.32,2.5l-5.06-.3-.81,3.73-3.1,2.6-1.67-.88s-1.46-3.81-2.87-1.51l-1.4,2.29-.9,2.06s3.63.81,4.54,2.39l.9,1.58,7.88,2.22.62,2.26,1.46.77.37,3.94,2.94,1.54,2.94.23,3.59-4.97s1.55,3.06,1.9,4.34c.35,1.29-.67,4.5-.67,4.5,0,0-1.13,2.21-2.56,2.96-1.43.74-3.17-1.23-3.05,1.18l.12,2.41-.36,2.67,2.21,1.17,2.1,1.11,1.22.96"/>
        <path class="cls-9" d="m187.61,168.21l.88.17,3.97-4.42,3.6-1.46s1.52.8,2.58,1.36c1.07.56,2.14-2.12,2.14-2.12l-.69-.63c-.69-.63.31-4.34.31-4.34,0,0,4.37.61,5.96.42s2.33-.13,3.04-1.47.17-1.62.17-1.62c0,0,1.16-3.48,1.16-5.21,0-1.73,2.58,1.36,2.58,1.36l1.26-2.39,2.83-2.24,3.68-2.56s5.35-1.54,5.77-.38c.41,1.15,2.58,2.1,2.58,2.1l-.92,1.75s-1.18,3.64-2.32,4.41c-1.15.76.46,6.34.46,6.34,0,0-2.08,2-2.78,3.33-.7,1.33-1.38,1.32-1.38,1.32l-3.49-.48s-3.99-2.78-5.32-3.49c0,0-2.34,2.51-2.11,4,.24,1.49-.82,1.56-.82,1.56l3.69,3.35.6,2.1,2.19,2.95-.71,1.35-1.34,2.54.59,2.77,2.39,3.21,1.34,2.92,1.46,4.72.47,2.61,4.3,1.93,1.9-1.02,3.7-2,1.75,3.48.69,1.75-3.08,2.79,1.09,2.27.36,2.57-.31,3.44-.63,2.2,2.57,1.35,4.56-.66-.16-3.49s2.81-1.66,4.75-2.22c1.94-.55,1.75-.52,4.14-1.25,2.39-.75,1.65-.54,2.8-.92,1.14-.38,2.27-.84,2.27-.84l.08-3.63,1.89-6.58,1.17.77c1.17.78,2.9-2.04,2.9-2.04l.82-5.01-2.31-1.22s-2.15-.45-4.17-.49l-3.3-1.74-2.75-4.86s-1.33-1.38-2.29-3.25l1.27-2.4,1.56-2.96,1.63.86,1.5.79,1.59.84,2.6-1.69,1.45-4.06s.66-.6,1.96-1.77c1.3-1.18,2.21.98,2.21.98l2.14-2.69c2.15-2.68.37-1.44-.73-2.82s-2.31-1.22-2.31-1.22l-3.91-4.67-3.07,1.11-.44,1.47c-.43,1.48,0,0-4.51-1.77l-1.49-4.31.89-1.04.22-4.02s-2.6-1.27-4.56-2.33c-1.97-1.07-2.42-3.77-2.42-3.77-.26-1.76.89-4.31.89-4.31l-1.04-2.84-3.69-7.21.63-3.25,2.14-1.35.85-4.32-3.86-3.66,1.55-2.94,1.1-2.09,1.29-2.44.96-4.95s-.24-.91-.48-1.94"/>
        <path class="cls-9" d="m208.48,206.42c-.1-.12-.21-.21-.26-.24-.02-.02-.03-.02-.03-.02l1.12-2.12-.45-3.96-1.47-.77s1.79-1.78,1.68-3.2c-.11-1.43,1.13-2.14,1.13-2.14l-.48-2.64-.8-.42c-.8-.42-.31-2.64-.31-2.64l-3.42.67-.93,3.6-3.48.89s-1.73-1.25-1.67-2.92c.06-1.67.7-1.33.7-1.33h3.22s2-3.81,2-3.81l-.4-1.82-1.45-.76"/>
        <path class="cls-9" d="m203.16,182.77h.01c.16.09-.87-4.54-.87-4.54,0,0-1.28-3.4-2.68-3.97-1.4-.57-4.56,1.54-4.56,1.54l-3.53.5-.8,4.24"/>
        <path class="cls-9" d="m217.37,209.79l-.84,2.58c-1.31-.81-2.57-1.66-3.79-2.56l3.95-3.91-.33-4.27s-.73-1.58.67-1.27,2.35-.21,3.18-1.13c.82-.93.72-1.33,2.84-.21,2.13,1.12,2.26,1.87,2.57,2.72.31.85-3.65,6.93-3.65,6.93l1.4.74s-.82,1.9.57,2.32l-6.56-1.95Z"/>
        <path class="cls-9" d="m264.36,220.33c-7.18,1.68-14.68,2.12-22.15,1.19l.77-2.78s-.72-1.21,2.21-.95c2.93.25,5.16.56,5.16.56l2.33-4.42h4.09s1.33.7,1.33.7l1.15,1.68,2.48,2.4s1.44.78,2.62,1.61Z"/>
        <path class="cls-9" d="m262.32,178.17l2.45-.78,2.15,2.17s4.25.55,2.6,2.4c-1.66,1.85-4.83,1.83-4.83,1.83l-1.15,2.18-2.02-2.43-1.02-1.95.76-1.44,1.05-1.99Z"/>
        <path class="cls-9" d="m265.86,168.88s-.93,1.12-1.08,2.06l-.16.94-4-2.11,2.17-4.13,3.07,3.24Z"/>
      </g>
      <g>
        <path class="cls-9" d="m399.44,82.04c0,3.82-3.1,6.92-6.92,6.92s-6.92-3.1-6.92-6.92,3.1-6.92,6.92-6.92,6.92,3.1,6.92,6.92Z"/>
        <path class="cls-9" d="m360.29,191.04c0,2.41-1.96,4.37-4.37,4.37s-4.37-1.96-4.37-4.37,1.96-4.37,4.37-4.37,4.37,1.96,4.37,4.37Z"/>
        <path class="cls-9" d="m234.75,52.52c0,2.41-1.96,4.37-4.37,4.37s-4.37-1.96-4.37-4.37,1.96-4.37,4.37-4.37,4.37,1.96,4.37,4.37Z"/>
        <circle class="cls-9" cx="462.47" cy="184.55" r="10.86"/>
        <circle class="cls-9" cx="89.03" cy="76.7" r="6.69"/>
        <circle class="cls-9" cx="54.29" cy="211.9" r="11.68"/>
        <circle class="cls-9" cx="157.99" cy="132.27" r="3.37"/>
        <path class="cls-9" d="m233.93,82.11c.27,2.28.55,4.57.82,6.85"/>
        <path class="cls-9" d="m231.38,60.86l2.06,17.14"/>
        <path class="cls-9" d="m318.8,118.71c-1.85.83-3.7,1.65-5.57,2.45"/>
        <path class="cls-9" d="m357.5,99.44c-11.2,5.79-22.36,11.67-33.78,17.01"/>
        <path class="cls-9" d="m374.14,91.01c-4.19,2.06-8.35,4.17-12.5,6.3"/>
        <path class="cls-9" d="m381.68,87.39c-1.16.54-2.33,1.1-3.48,1.65"/>
        <path class="cls-9" d="m331.88,170.25c-4.11-.49-8.23-.98-12.34-1.49"/>
        <path class="cls-9" d="m391.62,176.92c-18.31-2.01-36.63-4.05-54.93-6.11"/>
        <path class="cls-9" d="m447.03,182.84c-16.88-1.75-33.76-3.56-50.63-5.4"/>
        <path class="cls-9" d="m338.59,184.99c-7.4-2.3-15.02-4-22.21-6.94"/>
        <path class="cls-9" d="m348.39,188.56c-1.68-.74-3.39-1.4-5.12-2.02"/>
        <path class="cls-9" d="m165.03,134.16c6.46,1.73,12.91,3.46,19.37,5.19"/>
        <path class="cls-9" d="m156.08,112.24c10.39,5.78,20.83,11.47,31.53,16.66"/>
        <path class="cls-9" d="m108.58,86.74c14.82,7.17,29.15,15.26,43.52,23.29"/>
        <path class="cls-9" d="m100.12,82.58c1.21.59,2.42,1.17,3.63,1.77"/>
        <path class="cls-9" d="m177.33,185.47c1.58-.36,3.17-.73,4.75-1.1"/>
        <path class="cls-9" d="m101.97,201.52c23.49-5.2,46.98-10.43,70.61-14.97"/>
        <path class="cls-9" d="m70.73,208.35c9.06-1.95,18.12-3.94,27.17-5.94"/>
      </g>
    </g>
  </g>
  <g id="Books">
    <g>
      <g>
        <g>
          <path class="cls-4" d="m457.34,293.24v-2.63h-141.3c-2.66,0-5.08,1.08-6.83,2.83-1.75,1.75-2.83,4.17-2.83,6.83,0,5.33,4.33,9.66,9.66,9.66h141.3v-2.63h-3.39v-14.05h3.39Z"/>
          <path class="cls-13" d="m394.17,293.24h63.18v-2.63h-141.3c-2.66,0-5.08,1.08-6.83,2.83-1.75,1.75-2.83,4.17-2.83,6.83,0,5.33,4.33,9.66,9.66,9.66h141.3v-2.63h-63.18c-3.88,0-7.03-3.14-7.03-7.03,0-1.94.78-3.7,2.06-4.97,1.26-1.28,3.02-2.06,4.97-2.06Z"/>
          <path class="cls-13" d="m389.2,295.3c-1.28,1.26-2.06,3.02-2.06,4.97,0,3.89,3.14,7.03,7.03,7.03h63.18v2.63h-63.07c-5.33,0-9.66-4.33-9.66-9.66,0-2.66,1.08-5.08,2.83-6.83,1.75-1.75,4.17-2.83,6.83-2.83h63.07v2.63h-63.18c-1.94,0-3.7.78-4.97,2.06Z"/>
          <path class="cls-9" d="m389.2,295.3c-1.28,1.26-2.06,3.02-2.06,4.97,0,3.89,3.14,7.03,7.03,7.03h63.18v2.63h-63.07c-5.33,0-9.66-4.33-9.66-9.66,0-2.66,1.08-5.08,2.83-6.83,1.75-1.75,4.17-2.83,6.83-2.83h63.07v2.63h-63.18c-1.94,0-3.7.78-4.97,2.06Z"/>
          <line class="cls-9" x1="453.95" y1="293.24" x2="453.95" y2="307.29"/>
          <line class="cls-9" x1="453.95" y1="295.79" x2="420.86" y2="295.79"/>
          <line class="cls-9" x1="418.11" y1="295.79" x2="414.67" y2="295.79"/>
          <line class="cls-9" x1="398.83" y1="300.26" x2="429.11" y2="300.26"/>
          <line class="cls-9" x1="432.89" y1="300.26" x2="441.03" y2="300.26"/>
          <line class="cls-9" x1="443.41" y1="300.26" x2="453.95" y2="300.26"/>
          <line class="cls-9" x1="450.3" y1="304.2" x2="439.08" y2="304.2"/>
          <line class="cls-9" x1="407.45" y1="304.2" x2="405.21" y2="304.2"/>
          <path class="cls-9" d="m390.59,294.22s2.92,2.8,2.92,6.05-2.92,6.04-2.92,6.04"/>
          <path class="cls-9" d="m411.71,309.92h-95.67c-5.33,0-9.66-4.33-9.66-9.66,0-2.66,1.08-5.08,2.83-6.83,1.75-1.75,4.17-2.83,6.83-2.83h95.67"/>
        </g>
        <g>
          <path class="cls-4" d="m319.42,326.85v2.63h141.3c2.66,0,5.08-1.08,6.83-2.83,1.75-1.75,2.83-4.17,2.83-6.83,0-5.33-4.33-9.66-9.66-9.66h-141.3v2.63h3.39v14.05h-3.39Z"/>
          <path class="cls-13" d="m434.75,326.85h-115.33v2.63h141.3c2.66,0,5.08-1.08,6.83-2.83,1.75-1.75,2.83-4.17,2.83-6.83,0-5.33-4.33-9.66-9.66-9.66h-141.3v2.63h115.33c3.88,0,7.03,3.14,7.03,7.03,0,1.94-.78,3.7-2.06,4.97-1.26,1.28-3.02,2.06-4.97,2.06Z"/>
          <path class="cls-14" d="m460.72,310.16h-26.07c5.33,0,9.66,4.33,9.66,9.66,0,2.66-1.08,5.08-2.83,6.83-1.75,1.75-4.17,2.83-6.83,2.83h26.07c2.66,0,5.08-1.08,6.83-2.83,1.75-1.75,2.83-4.17,2.83-6.83,0-5.33-4.33-9.66-9.66-9.66Z"/>
          <g>
            <path class="cls-9" d="m439.72,324.79c1.28-1.26,2.06-3.02,2.06-4.97,0-3.89-3.14-7.03-7.03-7.03h-115.33v-2.63h115.22c5.33,0,9.66,4.33,9.66,9.66,0,2.66-1.08,5.08-2.83,6.83-1.75,1.75-4.17,2.83-6.83,2.83h-115.22v-2.63h115.33c1.94,0,3.7-.78,4.97-2.06Z"/>
            <line class="cls-9" x1="322.82" y1="326.85" x2="322.82" y2="312.79"/>
            <line class="cls-9" x1="322.82" y1="324.29" x2="408.06" y2="324.29"/>
            <line class="cls-9" x1="410.81" y1="324.29" x2="414.24" y2="324.29"/>
            <line class="cls-9" x1="430.09" y1="319.82" x2="386.77" y2="319.82"/>
            <line class="cls-9" x1="382.98" y1="319.82" x2="374.85" y2="319.82"/>
            <line class="cls-9" x1="372.47" y1="319.82" x2="322.82" y2="319.82"/>
            <line class="cls-9" x1="326.47" y1="315.88" x2="376.8" y2="315.88"/>
            <line class="cls-9" x1="421.47" y1="315.88" x2="423.7" y2="315.88"/>
            <path class="cls-9" d="m438.33,325.87s-2.92-2.8-2.92-6.05,2.92-6.04,2.92-6.04"/>
            <path class="cls-9" d="m417.2,310.16h43.52c5.33,0,9.66,4.33,9.66,9.66,0,2.66-1.08,5.08-2.83,6.83-1.75,1.75-4.17,2.83-6.83,2.83h-43.52"/>
          </g>
        </g>
        <g>
          <path class="cls-4" d="m469.08,332.35v-2.63h-167.37c-2.66,0-5.08,1.08-6.83,2.83-1.75,1.75-2.83,4.17-2.83,6.83,0,5.33,4.33,9.66,9.66,9.66h167.37v-2.63h-3.39v-14.05h3.39Z"/>
          <path class="cls-13" d="m379.82,332.35h89.25v-2.63h-167.37c-2.66,0-5.08,1.08-6.83,2.83-1.75,1.75-2.83,4.17-2.83,6.83,0,5.33,4.33,9.66,9.66,9.66h167.37v-2.63h-89.25c-3.88,0-7.03-3.14-7.03-7.03,0-1.94.78-3.7,2.06-4.97,1.26-1.28,3.02-2.06,4.97-2.06Z"/>
          <path class="cls-13" d="m374.86,334.41c-1.28,1.26-2.06,3.02-2.06,4.97,0,3.89,3.14,7.03,7.03,7.03h89.25v2.63h-89.15c-5.33,0-9.66-4.33-9.66-9.66,0-2.66,1.08-5.08,2.83-6.83,1.75-1.75,4.17-2.83,6.83-2.83h89.15v2.63h-89.25c-1.94,0-3.7.78-4.97,2.06Z"/>
          <path class="cls-9" d="m374.86,334.41c-1.28,1.26-2.06,3.02-2.06,4.97,0,3.89,3.14,7.03,7.03,7.03h89.25v2.63h-89.15c-5.33,0-9.66-4.33-9.66-9.66,0-2.66,1.08-5.08,2.83-6.83,1.75-1.75,4.17-2.83,6.83-2.83h89.15v2.63h-89.25c-1.94,0-3.7.78-4.97,2.06Z"/>
          <line class="cls-9" x1="465.68" y1="332.35" x2="465.68" y2="346.4"/>
          <line class="cls-9" x1="465.68" y1="334.9" x2="406.52" y2="334.9"/>
          <line class="cls-9" x1="403.77" y1="334.9" x2="400.33" y2="334.9"/>
          <line class="cls-9" x1="384.48" y1="339.37" x2="414.77" y2="339.37"/>
          <line class="cls-9" x1="418.55" y1="339.37" x2="439.72" y2="339.37"/>
          <line class="cls-9" x1="442.11" y1="339.37" x2="465.68" y2="339.37"/>
          <line class="cls-9" x1="462.03" y1="343.31" x2="437.78" y2="343.31"/>
          <line class="cls-9" x1="393.11" y1="343.31" x2="390.87" y2="343.31"/>
          <path class="cls-9" d="m376.25,333.33s2.92,2.8,2.92,6.05-2.92,6.04-2.92,6.04"/>
          <path class="cls-9" d="m397.37,349.04h-95.67c-5.33,0-9.66-4.33-9.66-9.66,0-2.66,1.08-5.08,2.83-6.83,1.75-1.75,4.17-2.83,6.83-2.83h95.67"/>
        </g>
      </g>
      <g>
        <g>
          <path class="cls-3" d="m50.41,309.94s-13.85-2.04-14.55,6.17c-.7,8.21,9.04,26.87,23.06,24.23v-4.75s-13.67,2.58-17.35-14.98c-2.04-9.72,10.96-4.5,10.96-4.5l-2.11-6.17Z"/>
          <g class="cls-20">
            <path class="cls-10" d="m50.41,309.94s-13.85-2.04-14.55,6.17c-.7,8.21,9.04,26.87,23.06,24.23v-4.75s-13.67,2.58-17.35-14.98c-2.04-9.72,10.96-4.5,10.96-4.5l-2.11-6.17Z"/>
          </g>
          <path class="cls-9" d="m50.41,309.94s-13.85-2.04-14.55,6.17c-.7,8.21,9.04,26.87,23.06,24.23v-4.75s-13.67,2.58-17.35-14.98c-2.04-9.72,10.96-4.5,10.96-4.5l-2.11-6.17Z"/>
        </g>
        <g>
          <path class="cls-3" d="m91.66,340.34v.02c-3.93,3.22-9.24,5.32-16.38,5.32-30.97,0-27.47-39.68-27.47-39.68h54.93s2.08,23.51-11.09,34.34Z"/>
          <g class="cls-19">
            <path class="cls-10" d="m91.66,340.34v.02c-3.93,3.22-9.24,5.32-16.38,5.32-30.97,0-27.47-39.68-27.47-39.68h10.09s1.17,17.44,7.51,25.9c6.32,8.42,26.08,8.44,26.24,8.44Z"/>
          </g>
          <path class="cls-9" d="m91.66,340.34v.02c-3.93,3.22-9.24,5.32-16.38,5.32-30.97,0-27.47-39.68-27.47-39.68h54.93s2.08,23.51-11.09,34.34Z"/>
        </g>
        <g>
          <g>
            <polygon class="cls-3" points="98.32 349.04 49.17 349.04 37.04 344.47 110.45 344.47 98.32 349.04"/>
            <g class="cls-18">
              <polygon class="cls-10" points="98.32 349.04 49.17 349.04 37.04 344.47 110.45 344.47 98.32 349.04"/>
            </g>
            <polygon class="cls-9" points="98.32 349.04 49.17 349.04 37.04 344.47 110.45 344.47 98.32 349.04"/>
          </g>
          <rect class="cls-5" x="32.64" y="341.63" width="82.22" height="3.68" rx="1.03" ry="1.03"/>
        </g>
        <path class="cls-9" d="m73.16,261.18c-12.77,10.8,9.25,28.17,0,35.44,0,0,9.06-3.52,3.42-15.49-5.63-11.97-3.42-19.95-3.42-19.95Z"/>
      </g>
      <line class="cls-9" x1="18.56" y1="349.6" x2="479.04" y2="349.6"/>
    </g>
  </g>
  <g id="Device">
    <g>
      <path class="cls-7" d="m395.64,385.24H104.36c-9.83,0-39.11-4.15-39.11-4.15h369.51s-29.28,4.15-39.11,4.15Z"/>
      <path class="cls-15" d="m107.97,192.91h284.05c2,0,3.62,1.62,3.62,3.62v173.88H104.36v-173.88c0-2,1.62-3.62,3.62-3.62Z"/>
      <path class="cls-6" d="m434.76,381.09H65.24c-1.38,0-1.59-1.99-.24-2.28l39.35-8.41h291.29l39.35,8.41c1.35.29,1.14,2.28-.24,2.28Z"/>
      <rect class="cls-5" x="107.58" y="200.69" width="284.84" height="157.85"/>
      <path class="cls-4" d="m256.29,365.4h-12.57c-.8,0-1.45-.65-1.45-1.45h0c0-.8.65-1.45,1.45-1.45h12.57c.8,0,1.45.65,1.45,1.45h0c0,.8-.65,1.45-1.45,1.45Z"/>
      <path class="cls-4" d="m252.08,196.61c0,1.15-.93,2.08-2.08,2.08s-2.08-.93-2.08-2.08.93-2.08,2.08-2.08,2.08.93,2.08,2.08Z"/>
      <polygon class="cls-9" points="411.84 375.74 88.16 375.74 105.16 371.74 394.84 371.74 411.84 375.74"/>
      <g>
        <path class="cls-16" d="m286.78,201.87s-65.52,88.81-176.96,76.75v-76.75h176.96Z"/>
        <path class="cls-12" d="m109.82,340.97s17.31-43.85,108.43-57.69c91.12-13.85,162.44-50.34,171.92-71.7v143.43H109.82v-14.03Z"/>
        <rect class="cls-17" x="109.82" y="201.87" width="280.35" height="5.44"/>
        <g>
          <line class="cls-9" x1="109.82" y1="207.31" x2="390.18" y2="207.31"/>
          <line class="cls-9" x1="113.67" y1="204.46" x2="121.8" y2="204.46"/>
          <line class="cls-9" x1="130.69" y1="204.46" x2="138.01" y2="204.46"/>
          <line class="cls-9" x1="147.49" y1="204.46" x2="154.62" y2="204.46"/>
        </g>
        <g class="cls-1">
          <rect class="cls-14" x="145.15" y="339.35" width="13.45" height="13.45" rx="2.22" ry="2.22"/>
          <rect class="cls-14" x="164.78" y="339.35" width="13.45" height="13.45" rx="2.22" ry="2.22"/>
          <rect class="cls-14" x="184.4" y="339.35" width="13.45" height="13.45" rx="2.22" ry="2.22"/>
          <rect class="cls-14" x="204.03" y="339.35" width="13.45" height="13.45" rx="2.22" ry="2.22"/>
          <rect class="cls-14" x="223.65" y="339.35" width="13.45" height="13.45" rx="2.22" ry="2.22"/>
          <rect class="cls-14" x="243.27" y="339.35" width="13.45" height="13.45" rx="2.22" ry="2.22"/>
          <rect class="cls-14" x="262.9" y="339.35" width="13.45" height="13.45" rx="2.22" ry="2.22"/>
          <rect class="cls-14" x="282.52" y="339.35" width="13.45" height="13.45" rx="2.22" ry="2.22"/>
          <rect class="cls-14" x="302.15" y="339.35" width="13.45" height="13.45" rx="2.22" ry="2.22"/>
          <rect class="cls-14" x="321.77" y="339.35" width="13.45" height="13.45" rx="2.22" ry="2.22"/>
          <rect class="cls-14" x="341.39" y="339.35" width="13.45" height="13.45" rx="2.22" ry="2.22"/>
        </g>
        <path class="cls-17" d="m367.69,355v-5.65c0-1.25-1.01-2.26-2.26-2.26h-10.59v3.49c0,1.22-1,2.22-2.22,2.22h-9.02c-1.22,0-2.22-1-2.22-2.22v-3.49h-6.17v3.49c0,1.22-1,2.22-2.22,2.22h-9.02c-1.22,0-2.22-1-2.22-2.22v-3.49h-6.17v3.49c0,1.22-1,2.22-2.22,2.22h-9.02c-1.22,0-2.22-1-2.22-2.22v-3.49h-6.17v3.49c0,1.22-1,2.22-2.22,2.22h-9.02c-1.22,0-2.22-1-2.22-2.22v-3.49h-6.17v3.49c0,1.22-1,2.22-2.22,2.22h-9.02c-1.22,0-2.22-1-2.22-2.22v-3.49h-6.17v3.49c0,1.22-1,2.22-2.22,2.22h-9.02c-1.22,0-2.22-1-2.22-2.22v-3.49h-6.17v3.49c0,1.22-1,2.22-2.22,2.22h-9.02c-1.22,0-2.22-1-2.22-2.22v-3.49h-6.17v3.49c0,1.22-1,2.22-2.22,2.22h-9.02c-1.22,0-2.22-1-2.22-2.22v-3.49h-6.17v3.49c0,1.22-1,2.22-2.22,2.22h-9.02c-1.22,0-2.22-1-2.22-2.22v-3.49h-6.17v3.49c0,1.22-1,2.22-2.22,2.22h-9.02c-1.22,0-2.22-1-2.22-2.22v-3.49h-6.17v3.49c0,1.22-1,2.22-2.22,2.22h-9.02c-1.22,0-2.22-1-2.22-2.22v-3.49h-10.59c-1.25,0-2.26,1.01-2.26,2.26v5.65"/>
        <path class="cls-9" d="m367.69,355v-5.65c0-1.25-1.01-2.26-2.26-2.26h-10.59v3.49c0,1.22-1,2.22-2.22,2.22h-9.02c-1.22,0-2.22-1-2.22-2.22v-3.49h-6.17v3.49c0,1.22-1,2.22-2.22,2.22h-9.02c-1.22,0-2.22-1-2.22-2.22v-3.49h-6.17v3.49c0,1.22-1,2.22-2.22,2.22h-9.02c-1.22,0-2.22-1-2.22-2.22v-3.49h-6.17v3.49c0,1.22-1,2.22-2.22,2.22h-9.02c-1.22,0-2.22-1-2.22-2.22v-3.49h-6.17v3.49c0,1.22-1,2.22-2.22,2.22h-9.02c-1.22,0-2.22-1-2.22-2.22v-3.49h-6.17v3.49c0,1.22-1,2.22-2.22,2.22h-9.02c-1.22,0-2.22-1-2.22-2.22v-3.49h-6.17v3.49c0,1.22-1,2.22-2.22,2.22h-9.02c-1.22,0-2.22-1-2.22-2.22v-3.49h-6.17v3.49c0,1.22-1,2.22-2.22,2.22h-9.02c-1.22,0-2.22-1-2.22-2.22v-3.49h-6.17v3.49c0,1.22-1,2.22-2.22,2.22h-9.02c-1.22,0-2.22-1-2.22-2.22v-3.49h-6.17v3.49c0,1.22-1,2.22-2.22,2.22h-9.02c-1.22,0-2.22-1-2.22-2.22v-3.49h-6.17v3.49c0,1.22-1,2.22-2.22,2.22h-9.02c-1.22,0-2.22-1-2.22-2.22v-3.49h-10.59c-1.25,0-2.26,1.01-2.26,2.26v5.65"/>
        <g>
          <rect class="cls-8" x="145.15" y="339.35" width="13.45" height="13.45" rx="2.22" ry="2.22"/>
          <rect class="cls-8" x="164.78" y="339.35" width="13.45" height="13.45" rx="2.22" ry="2.22"/>
          <rect class="cls-8" x="184.4" y="339.35" width="13.45" height="13.45" rx="2.22" ry="2.22"/>
          <rect class="cls-8" x="204.03" y="339.35" width="13.45" height="13.45" rx="2.22" ry="2.22"/>
          <rect class="cls-8" x="223.65" y="339.35" width="13.45" height="13.45" rx="2.22" ry="2.22"/>
          <rect class="cls-8" x="243.27" y="339.35" width="13.45" height="13.45" rx="2.22" ry="2.22"/>
          <rect class="cls-8" x="262.9" y="339.35" width="13.45" height="13.45" rx="2.22" ry="2.22"/>
          <rect class="cls-8" x="282.52" y="339.35" width="13.45" height="13.45" rx="2.22" ry="2.22"/>
          <rect class="cls-8" x="302.15" y="339.35" width="13.45" height="13.45" rx="2.22" ry="2.22"/>
          <rect class="cls-8" x="321.77" y="339.35" width="13.45" height="13.45" rx="2.22" ry="2.22"/>
          <rect class="cls-8" x="341.39" y="339.35" width="13.45" height="13.45" rx="2.22" ry="2.22"/>
        </g>
        <g>
          <path class="cls-4" d="m322.03,279h-144.06c-5.59,0-10.12-4.53-10.12-10.12h0c0-5.59,4.53-10.12,10.12-10.12h144.06c5.59,0,10.12,4.53,10.12,10.12h0c0,5.59-4.53,10.12-10.12,10.12Z"/>
          <path class="cls-9" d="m322.03,279h-144.06c-5.59,0-10.12-4.53-10.12-10.12h0c0-5.59,4.53-10.12,10.12-10.12h144.06c5.59,0,10.12,4.53,10.12,10.12h0c0,5.59-4.53,10.12-10.12,10.12Z"/>
          <g>
            <path class="cls-11" d="m322.1,268.89c.29-.48.44-1.03.44-1.6,0-.84-.32-1.64-.92-2.23-.6-.6-1.39-.93-2.23-.93s-1.64.33-2.24.93c-.59.59-.92,1.39-.92,2.23s.33,1.64.92,2.23c1.01,1.01,2.64,1.17,3.84.47.23-.12.44-.28.63-.47s.36-.4.48-.63Z"/>
            <path class="cls-15" d="m326.29,272.78l-3.34-3.34c.96-1.6.76-3.71-.62-5.09-.79-.79-1.83-1.22-2.94-1.22s-2.16.43-2.94,1.22c-.79.78-1.22,1.83-1.22,2.94s.43,2.15,1.22,2.94c.78.79,1.83,1.22,2.94,1.22.77,0,1.5-.21,2.14-.6l3.34,3.34c.2.19.45.29.71.29s.51-.1.71-.29c.39-.39.39-1.02,0-1.41Zm-5.3-2.79c-1.2.7-2.83.54-3.84-.47-.59-.59-.92-1.39-.92-2.23s.33-1.64.92-2.23c.6-.6,1.39-.93,2.24-.93s1.63.33,2.23.93c.6.59.92,1.39.92,2.23,0,.57-.15,1.12-.44,1.6-.12.23-.29.44-.48.63s-.4.35-.63.47Z"/>
          </g>
        </g>
      </g>
    </g>
  </g>
  <g id="Left_hand" data-name="Left hand">
    <g>
      <path class="cls-4" d="m236.2,404.44c-.77-3.86-1.35-5.01-7.71-6.56-5.23-1.27-10.59.07-12.32.59-.37.11-.58.18-.58.18,0,0-1.56-5.39-2.71-6.84-1.16-1.44-6.55-15.9-7.12-17.25-.23-.55-1.2-1.51-2.53-2.45-1.89-1.35-4.51-2.66-6.74-2.67h-.15c-3.82.07-17.77-.88-17.77-.88,0,0-2.12-3.92-3.85-5.37-1.73-1.44-8.29-3.08-10.21-2.69-.18.04-.41.12-.67.24,0,0,0,.01-.02.01-2.58,1.19-8.56,5.91-8.56,5.91,0,0-.21-.25-.55-.58-.62-.59-1.66-1.44-2.54-1.44-1.22,0-6.39-1.5-8.5-.42-.22.11-.41.25-.56.42-.9,1.06-4.95,5.38-8.7,9.1-2.68,2.66-5.21,5.02-6.33,5.68-2.7,1.59-7.34,2.34-10.02,3.13-2.68.8-10.98,8.97-10.98,8.97-7.13,1.41-32.1,2.92-48.69,3.79-8.91.48-25.41,2.77-25.41,2.77l25.92,77.47s2.07-.73,5.49-1.91c15.04-5.25,56.22-19.49,62.34-20.35,7.52-1.06,11.57-4.72,17.16-5.37,5.6-.64,10.59-1.46,18.85,0,8.26,1.46,20.65-3.98,30.01-6.1,9.36-2.12,13.27-9.22,15.12-12.64,1.84-3.43,4.62-5.66,9.63-7.98s6.75-4.82,10.22-6.94c3.21-1.96,8.38-5.38,8.54-8.93.02-.3,0-.59-.06-.89Zm-32.97.04s-1.05.5-1.64-.06c-.6-.56-3.54-1.77-3.54-1.77.57-1.55-.44-3.51-1.24-5.12-.79-1.62-1.78-4.75-1.78-4.75,0,0,3.59,5.1,4.65,5.87,1.06.78,1.57.87,1.57.87,0,0,.69,3.29,1.94,4.9,0,.02.02.04.04.06Z"/>
      <path class="cls-10" d="m58.39,395.31c16.59-.87,41.56-2.38,48.69-3.79,0,0,8.3-8.17,10.98-8.97,2.68-.79,7.32-1.54,10.02-3.13,1.12-.66,3.65-3.02,6.33-5.68-3.07,4.62-6.99,10.18-9.38,12.33-4.4,3.97-5.89,0-5.89,0-5.03,8.8-48.29,9.29-60.75,9.24Z"/>
      <path class="cls-10" d="m143.67,364.22c2.11-1.08,7.28.42,8.5.42.88,0,1.92.85,2.54,1.44-1.41,1.19-2.35,2.1-2.35,2.1,0,0-2.5-1.52-5.56-3.53-.94-.62-2.05-.67-3.13-.43Z"/>
      <path class="cls-10" d="m163.84,360.74c.26-.12.49-.2.67-.24,1.92-.39,8.48,1.25,10.21,2.69,1.73,1.45,3.85,5.37,3.85,5.37,0,0,13.95.95,17.77.88h.15c1.43,5.35-5.8,7.63-5.8,7.63,0,0-1.76-7.88-8.78-8.29-7.02-.42-9.36,1.32-9.36,1.32-.13-6.47-2.47-7.44-6.7-9.19-.58-.24-1.27-.28-2.01-.17Z"/>
      <path class="cls-10" d="m195.03,392.78s.99,3.13,1.78,4.75c.8,1.61,1.81,3.57,1.24,5.12,0,0,2.94,1.21,3.54,1.77-2.22-1.16-6.56-3.19-6.56-3.19,1.38-3.16-2.17-14.93-2.17-14.93,0,0,5.93-1.03,10.37-4.7,2.66-2.2,1.42-6.44,0-9.49,1.33.94,2.3,1.9,2.53,2.45.57,1.35,5.96,15.81,7.12,17.25,1.15,1.45,2.71,6.84,2.71,6.84,0,0,.21-.07.58-.18-3.96,2.17-9.95,5.31-12.98,5.95-1.25-1.61-1.94-4.9-1.94-4.9,0,0-.51-.09-1.57-.87-1.06-.77-4.65-5.87-4.65-5.87Z"/>
      <path class="cls-10" d="m232.29,402.95c1.73.58,3.01,1.43,3.97,2.38-.16,3.55-5.33,6.97-8.54,8.93-3.47,2.12-5.21,4.62-10.22,6.94s-7.79,4.55-9.63,7.98c-1.85,3.42-5.76,10.52-15.12,12.64-9.36,2.12-21.75,7.56-30.01,6.1-8.26-1.46-13.25-.64-18.85,0-5.59.65-9.64,4.31-17.16,5.37-6.12.86-47.3,15.1-62.34,20.35,15.04-16.15,63.17-31.45,70.18-30.62,7.65.92,20.57-2.23,26.11-3.32,5.54-1.08,6.46-3.39,6.46-3.39,0,1.84-1.97,4.23-1.97,4.23,0,0,1.45,1.31,3.29,2.36,1.85,1.06,25.45-4.88,29.59-8.44,4.13-3.56,9.84-10.68,11.95-12.3,2.11-1.61,13.88-5.06,15.56-8.28s-2.11-9.88-2.9-10.93c-.79-1.06,2.24-2.51,9.63,0Z"/>
      <path class="cls-10" d="m239.01,412.74v-1.02c.04.63,0,1.02,0,1.02Z"/>
      <g>
        <path class="cls-9" d="m32.97,398.08s63.14-4.39,74.1-6.55c0,0,8.31-8.17,10.98-8.97s7.32-1.55,10.02-3.13c2.7-1.58,13.49-12.96,15.03-14.79,1.54-1.83,7.71,0,9.06,0s3.08,2.03,3.08,2.03c0,0,7.32-5.78,9.25-6.17,1.93-.39,8.48,1.26,10.21,2.7,1.73,1.44,3.85,5.36,3.85,5.36,0,0,13.94.96,17.76.88,3.82-.08,8.86,3.78,9.43,5.13.56,1.35,5.96,15.81,7.12,17.25,1.16,1.44,2.71,6.84,2.71,6.84,0,0,6.54-2.31,12.9-.77,6.36,1.54,6.94,2.7,7.71,6.55.77,3.85-5.01,7.71-8.48,9.83-3.47,2.12-5.2,4.62-10.21,6.94-5.01,2.32-7.79,4.55-9.64,7.97-1.85,3.42-5.76,10.53-15.12,12.65s-21.75,7.56-30.01,6.1c-8.26-1.46-13.25-.65-18.85,0-5.6.65-9.64,4.31-17.16,5.37-7.52,1.06-67.84,22.26-67.84,22.26"/>
        <path class="cls-9" d="m178.57,368.56c-4.11.03-7.32,2.3-7.32,2.3"/>
        <path class="cls-9" d="m186.91,370.85c2.56,1.18,4.51,8.57,4.51,8.57"/>
        <path class="cls-9" d="m193.99,388.44s1.41,7,2.82,9.09,1.22,4.62,1.22,4.62"/>
        <path class="cls-9" d="m193.99,400.77s5.46,2.35,7.26,3.68c1.8,1.33,7.61-3.29,14.34-5.8"/>
        <path class="cls-9" d="m194.56,391s1.35-1.11,4.24-1.69c2.89-.58,5.32-4.91,5.98-7.71"/>
        <path class="cls-9" d="m203.23,404.48c-1.27-1.59-1.98-4.96-1.98-4.96,0,0-.51-.1-1.57-.87-1.06-.77-4.65-5.87-4.65-5.87"/>
        <path class="cls-9" d="m201.25,399.52s4.98.48,7.96-1.93"/>
        <path class="cls-9" d="m155.25,366.66s-2.22,1.65-5.78,3.04"/>
        <path class="cls-9" d="m143.74,364.18c3.23-.3,5.73,2.1,6.11,2.49"/>
        <path class="cls-9" d="m164.5,360.5s5.59,1.54,6.75,3.08c1.16,1.54,1.16,3.08,1.16,3.08"/>
        <path class="cls-9" d="m107.07,391.52s5.1,0,8.14-1.93"/>
        <path class="cls-9" d="m143.89,447.92s10.98-3.4,15.41-4.17c4.43-.77,6.55-4.05,6.55-4.05"/>
        <path class="cls-9" d="m222.13,406.36s2.84,3.7,1.93,7.52"/>
        <path class="cls-9" d="m203.23,410.12s4.47,2.6,5.99,8.96"/>
        <path class="cls-9" d="m155.25,371.97s-10.39,11.22-16.28,14.32"/>
        <path class="cls-9" d="m172.4,375.14s-10.79,11.37-15.22,13.3"/>
      </g>
    </g>
  </g>
  <g id="Right_hand" data-name="Right hand">
    <g>
      <path class="cls-4" d="m263.74,365.33c.16,3.55,5.33,6.97,8.54,8.93,3.47,2.12,5.21,4.62,10.22,6.94s7.79,4.55,9.63,7.98c1.85,3.42,5.76,10.52,15.12,12.64,9.36,2.12,21.75,7.56,30.01,6.1,8.26-1.46,13.25-.64,18.85,0,5.59.65,9.64,4.31,17.16,5.37,6.12.86,47.3,15.1,62.34,20.35,3.42,1.18,5.49,1.91,5.49,1.91l25.92-77.47s-6.5-.29-15.41-.77c-16.59-.87-51.56-4.38-58.69-5.79,0,0-8.3-8.17-10.98-8.97-2.68-.79-7.32-1.54-10.02-3.13-1.12-.66-3.65-3.02-6.33-5.68-3.75-3.72-7.8-8.04-8.7-9.1-.15-.17-.34-.31-.56-.42-2.11-1.08-7.28.42-8.5.42-.88,0-1.92.85-2.54,1.44-.34.33-.55.58-.55.58,0,0-5.98-4.72-8.56-5.91,0,0-.02-.01-.02-.01-.26-.12-.49-.2-.67-.24-1.92-.39-8.48,1.25-10.21,2.69-1.73,1.45-3.85,5.37-3.85,5.37,0,0-13.95.95-17.77.88h-.15c-2.23.01-4.85,1.32-6.74,2.67-1.33.94-2.3,1.9-2.53,2.45-.57,1.35-5.96,15.81-7.12,17.25-1.15,1.45-2.71,6.84-2.71,6.84,0,0-.21-.07-.58-.18-1.73-.52-7.09-1.86-12.32-.59-6.36,1.55-6.94,2.7-7.71,6.56-.06.3-.08.59-.06.89Zm33.07-.91c1.25-1.61,1.94-4.9,1.94-4.9,0,0,.51-.09,1.57-.87,1.06-.77,4.65-5.87,4.65-5.87,0,0-.99,3.13-1.78,4.75-.8,1.61-1.81,3.57-1.24,5.12,0,0-2.94,1.21-3.54,1.77-.59.56-1.64.06-1.64.06.02-.02.03-.04.04-.06Z"/>
      <path class="cls-10" d="m451.61,357.31c-16.59-.87-51.56-4.38-58.69-5.79,0,0-8.3-8.17-10.98-8.97-2.68-.79-7.32-1.54-10.02-3.13-1.12-.66-3.65-3.02-6.33-5.68,3.07,4.62,6.99,10.18,9.38,12.33,4.4,3.97,5.89,0,5.89,0,5.03,8.8,58.29,11.29,70.75,11.24Z"/>
      <path class="cls-10" d="m356.33,324.22c-2.11-1.08-7.28.42-8.5.42-.88,0-1.92.85-2.54,1.44,1.41,1.19,2.35,2.1,2.35,2.1,0,0,2.5-1.52,5.56-3.53.94-.62,2.05-.67,3.13-.43Z"/>
      <path class="cls-10" d="m336.16,320.74c-.26-.12-.49-.2-.67-.24-1.92-.39-8.48,1.25-10.21,2.69-1.73,1.45-3.85,5.37-3.85,5.37,0,0-13.95.95-17.77.88h-.15c-1.43,5.35,5.8,7.63,5.8,7.63,0,0,1.76-7.88,8.78-8.29,7.02-.42,9.36,1.32,9.36,1.32.13-6.47,2.47-7.44,6.7-9.19.58-.24,1.27-.28,2.01-.17Z"/>
      <path class="cls-10" d="m304.97,352.78s-.99,3.13-1.78,4.75c-.8,1.61-1.81,3.57-1.24,5.12,0,0-2.94,1.21-3.54,1.77,2.22-1.16,6.56-3.19,6.56-3.19-1.38-3.16,2.17-14.93,2.17-14.93,0,0-5.93-1.03-10.37-4.7-2.66-2.2-1.42-6.44,0-9.49-1.33.94-2.3,1.9-2.53,2.45-.57,1.35-5.96,15.81-7.12,17.25-1.15,1.45-2.71,6.84-2.71,6.84,0,0-.21-.07-.58-.18,3.96,2.17,9.95,5.31,12.98,5.95,1.25-1.61,1.94-4.9,1.94-4.9,0,0,.51-.09,1.57-.87,1.06-.77,4.65-5.87,4.65-5.87Z"/>
      <path class="cls-10" d="m267.71,362.95c-1.73.58-3.01,1.43-3.97,2.38.16,3.55,5.33,6.97,8.54,8.93,3.47,2.12,5.21,4.62,10.22,6.94s7.79,4.55,9.63,7.98c1.85,3.42,5.76,10.52,15.12,12.64,9.36,2.12,21.75,7.56,30.01,6.1,8.26-1.46,13.25-.64,18.85,0,5.59.65,9.64,4.31,17.16,5.37,6.12.86,47.3,15.1,62.34,20.35-15.04-16.15-63.17-31.45-70.18-30.62-7.65.92-20.57-2.23-26.11-3.32-5.54-1.08-6.46-3.39-6.46-3.39,0,1.84,1.97,4.23,1.97,4.23,0,0-1.45,1.31-3.29,2.36-1.85,1.06-25.45-4.88-29.59-8.44-4.13-3.56-9.84-10.68-11.95-12.3-2.11-1.61-13.88-5.06-15.56-8.28s2.11-9.88,2.9-10.93c.79-1.06-2.24-2.51-9.63,0Z"/>
      <path class="cls-10" d="m260.99,372.74v-1.02c-.04.63,0,1.02,0,1.02Z"/>
      <g>
        <path class="cls-9" d="m467.03,358.08s-63.14-4.39-74.1-6.55c0,0-8.31-8.17-10.98-8.97s-7.32-1.55-10.02-3.13c-2.7-1.58-13.49-12.96-15.03-14.79-1.54-1.83-7.71,0-9.06,0s-3.08,2.03-3.08,2.03c0,0-7.32-5.78-9.25-6.17-1.93-.39-8.48,1.26-10.21,2.7-1.73,1.44-3.85,5.36-3.85,5.36,0,0-13.94.96-17.76.88-3.82-.08-8.86,3.78-9.43,5.13-.56,1.35-5.96,15.81-7.12,17.25-1.16,1.44-2.71,6.84-2.71,6.84,0,0-6.54-2.31-12.9-.77-6.36,1.54-6.94,2.7-7.71,6.55-.77,3.85,5.01,7.71,8.48,9.83,3.47,2.12,5.2,4.62,10.21,6.94,5.01,2.32,7.79,4.55,9.64,7.97,1.85,3.42,5.76,10.53,15.12,12.65s21.75,7.56,30.01,6.1c8.26-1.46,13.25-.65,18.85,0,5.6.65,9.64,4.31,17.16,5.37,7.52,1.06,67.84,22.26,67.84,22.26"/>
        <path class="cls-9" d="m321.43,328.56c4.11.03,7.32,2.3,7.32,2.3"/>
        <path class="cls-9" d="m313.09,330.85c-2.56,1.18-4.51,8.57-4.51,8.57"/>
        <path class="cls-9" d="m306.01,348.44s-1.41,7-2.82,9.09-1.22,4.62-1.22,4.62"/>
        <path class="cls-9" d="m306.01,360.77s-5.46,2.35-7.26,3.68c-1.8,1.33-7.61-3.29-14.34-5.8"/>
        <path class="cls-9" d="m305.44,351s-1.35-1.11-4.24-1.69c-2.89-.58-5.32-4.91-5.98-7.71"/>
        <path class="cls-9" d="m296.77,364.48c1.27-1.59,1.98-4.96,1.98-4.96,0,0,.51-.1,1.57-.87,1.06-.77,4.65-5.87,4.65-5.87"/>
        <path class="cls-9" d="m298.75,359.52s-4.98.48-7.96-1.93"/>
        <path class="cls-9" d="m344.75,326.66s2.22,1.65,5.78,3.04"/>
        <path class="cls-9" d="m356.26,324.18c-3.23-.3-5.73,2.1-6.11,2.49"/>
        <path class="cls-9" d="m335.5,320.5s-5.59,1.54-6.75,3.08c-1.16,1.54-1.16,3.08-1.16,3.08"/>
        <path class="cls-9" d="m392.93,351.52s-5.1,0-8.14-1.93"/>
        <path class="cls-9" d="m356.11,407.92s-10.98-3.4-15.41-4.17c-4.43-.77-6.55-4.05-6.55-4.05"/>
        <path class="cls-9" d="m277.87,366.36s-2.84,3.7-1.93,7.52"/>
        <path class="cls-9" d="m296.77,370.12s-4.47,2.6-5.99,8.96"/>
        <path class="cls-9" d="m344.75,331.97s10.39,11.22,16.28,14.32"/>
        <path class="cls-9" d="m327.6,335.14s10.79,11.37,15.22,13.3"/>
      </g>
    </g>
  </g>
</svg>