<?xml version="1.0" encoding="UTF-8"?>
<svg xmlns="http://www.w3.org/2000/svg" viewBox="0 0 500 500">
  <defs>
    <style>
      .cls-1 {
        opacity: .7;
      }

      .cls-2, .cls-3, .cls-4, .cls-5, .cls-6, .cls-7, .cls-8, .cls-9, .cls-10, .cls-11, .cls-12, .cls-13, .cls-14, .cls-15, .cls-16, .cls-17, .cls-18, .cls-19, .cls-20, .cls-21, .cls-22, .cls-23, .cls-24, .cls-25, .cls-26, .cls-27 {
        stroke-width: 0px;
      }

      .cls-2, .cls-16, .cls-17, .cls-25 {
        fill: #27debf;
      }

      .cls-2, .cls-26 {
        opacity: .1;
      }

      .cls-3, .cls-4, .cls-25 {
        opacity: .4;
      }

      .cls-3, .cls-11, .cls-12, .cls-18, .cls-19, .cls-27 {
        fill: #fff;
      }

      .cls-28, .cls-11 {
        opacity: .5;
      }

      .cls-5 {
        opacity: .05;
      }

      .cls-6 {
        opacity: .25;
      }

      .cls-8, .cls-29 {
        opacity: .3;
      }

      .cls-9 {
        fill: #37474f;
      }

      .cls-10 {
        fill: #e0e0e0;
      }

      .cls-12 {
        opacity: .8;
      }

      .cls-13 {
        fill: #f5f5f5;
      }

      .cls-14 {
        fill: #f0f0f0;
      }

      .cls-15, .cls-16 {
        opacity: .2;
      }

      .cls-30, .cls-23 {
        opacity: .15;
      }

      .cls-19 {
        opacity: .6;
      }

      .cls-20 {
        fill: #fafafa;
      }

      .cls-21 {
        fill: #263238;
      }

      .cls-22 {
        fill: #ebebeb;
      }

      .cls-24 {
        fill: #455a64;
      }

      .cls-27 {
        opacity: .35;
      }
    </style>
  </defs>
  <g id="Floor">
    <ellipse id="Floor-2" data-name="Floor" class="cls-13" cx="250" cy="345.8" rx="223.4" ry="131.22"/>
  </g>
  <g id="Shadows">
    <path id="Shadow" class="cls-10" d="m93.97,345.91c12.93,7.46,12.93,19.56,0,27.03-12.93,7.46-33.89,7.46-46.81,0-12.93-7.46-12.93-19.56,0-27.03,12.93-7.46,33.89-7.46,46.81,0Z"/>
    <path id="Shadow-2" data-name="Shadow" class="cls-10" d="m122.34,363.06l117.26,67.7c2.39,1.38,6.27,1.38,8.66,0l198.5-114.61c2.39-1.38,2.39-3.62,0-5l-117.26-67.7c-2.39-1.38-6.27-1.38-8.66,0l-198.5,114.61c-2.39,1.38-2.39,3.62,0,5Z"/>
  </g>
  <g id="Plants">
    <g id="Plants-2" data-name="Plants">
      <g>
        <path class="cls-17" d="m418.28,291.88l-8.17-4.72s-4.86-20.2-2.92-38.38c2.72-25.56,16.48-36.69,25.95-32.97,6.3,2.48,8.25,9.64-2.34,24.86-6.25,8.98-13.92,27.69-12.52,51.21Z"/>
        <g class="cls-29">
          <path class="cls-7" d="m418.28,291.88l-8.17-4.72s-4.86-20.2-2.92-38.38c2.72-25.56,16.48-36.69,25.95-32.97,6.3,2.48,8.25,9.64-2.34,24.86-6.25,8.98-13.92,27.69-12.52,51.21Z"/>
        </g>
        <path class="cls-18" d="m414.89,281.95s.05,0,.08,0c.31-.06.51-.35.45-.66-4.48-23.57,3.76-50.07,13.96-61.09.21-.23.2-.59-.03-.8-.23-.21-.59-.2-.8.03-10.38,11.22-18.78,38.15-14.24,62.07.05.28.31.47.58.46Z"/>
      </g>
      <g>
        <path class="cls-17" d="m439.68,304.24c1.29.66,4.72-2.28,5.68-3,1.64-1.22,2.93-2.9,3.75-4.77.95-2.17,1.11-4.46.66-6.79-.23-1.21-.63-2.38-1.03-3.54-.39-1.14-.78-2.28-1.17-3.43-.39-1.13-.78-2.29-.69-3.48.18-2.39,2.21-4.17,4.06-5.7,2.04-1.7,4.15-3.91,3.99-6.77-.12-2.21-1.37-4.2-2.82-5.87-1.46-1.66-3.16-3.11-4.49-4.88-.96-1.27-1.73-2.79-1.67-4.38.04-.99.4-1.94.83-2.83.92-1.92,2.16-3.69,2.76-5.73.6-2.04.37-4.52-1.26-5.88-1.34-1.11-3.26-1.18-4.99-.98-1.6.19-3.13.99-4.5,1.84-4.42,2.76-6.74,8.27-11.47,10.46-1.82.84-3.85,1.11-5.77,1.72-1.91.61-3.84,1.7-4.65,3.54-1.59,3.63,1.91,7.82.86,11.63-.93,3.38-4.1,4.81-5.76,7.9-.73,1.35-.83,2.87-.63,4.39.35,2.57.82,4.45,2.2,7.26,1.14,2.32,4.36,6.71,4.36,6.71,0,0,21.54,12.45,21.74,12.55Z"/>
        <g class="cls-30">
          <path class="cls-7" d="m439.68,304.24c1.29.66,4.72-2.28,5.68-3,1.64-1.22,2.93-2.9,3.75-4.77.95-2.17,1.11-4.46.66-6.79-.23-1.21-.63-2.38-1.03-3.54-.39-1.14-.78-2.28-1.17-3.43-.39-1.13-.78-2.29-.69-3.48.18-2.39,2.21-4.17,4.06-5.7,2.04-1.7,4.15-3.91,3.99-6.77-.12-2.21-1.37-4.2-2.82-5.87-1.46-1.66-3.16-3.11-4.49-4.88-.96-1.27-1.73-2.79-1.67-4.38.04-.99.4-1.94.83-2.83.92-1.92,2.16-3.69,2.76-5.73.6-2.04.37-4.52-1.26-5.88-1.34-1.11-3.26-1.18-4.99-.98-1.6.19-3.13.99-4.5,1.84-4.42,2.76-6.74,8.27-11.47,10.46-1.82.84-3.85,1.11-5.77,1.72-1.91.61-3.84,1.7-4.65,3.54-1.59,3.63,1.91,7.82.86,11.63-.93,3.38-4.1,4.81-5.76,7.9-.73,1.35-.83,2.87-.63,4.39.35,2.57.82,4.45,2.2,7.26,1.14,2.32,4.36,6.71,4.36,6.71,0,0,21.54,12.45,21.74,12.55Z"/>
        </g>
        <path class="cls-18" d="m427.17,297.72s.02,0,.02,0c.32-.03.55-.31.52-.62-2.07-22.42,7.27-47.76,14.6-55.36.22-.22.21-.58-.01-.8-.23-.22-.58-.21-.8.01-7.48,7.75-17.01,33.51-14.92,56.25.03.3.29.53.59.51Z"/>
        <path class="cls-18" d="m429.4,270.07c.06,0,.11-.01.17-.03,7.11-2.6,16.08-3.44,16.17-3.45.31-.03.54-.31.51-.62-.03-.31-.28-.55-.62-.51-.09,0-9.21.87-16.46,3.52-.29.11-.45.43-.34.73.09.24.32.38.56.37Z"/>
      </g>
    </g>
  </g>
  <g id="Device">
    <g id="Laptop">
      <path class="cls-9" d="m126.34,350.62c0,2.96,2.22,6.64,4.95,8.21l107.69,62.19c2.73,1.58,7.16,1.58,9.89,0l189.63-109.48c2.73-1.58,4.95-5.25,4.95-8.21,0-2.96-2.21-6.64-4.95-8.21l-107.69-62.19c-2.73-1.58-7.16-1.58-9.89,0l-189.63,109.48c-2.73,1.58-4.95,5.25-4.95,8.21Z"/>
      <path class="cls-24" d="m131.29,348.11l107.69,62.19c2.73,1.58,7.16,1.58,9.89,0l189.63-109.48c2.73-1.58,2.73-4.13,0-5.71l-107.69-62.19c-2.73-1.58-7.16-1.58-9.89,0l-189.63,109.48c-2.73,1.58-2.73,4.13,0,5.71Z"/>
      <path class="cls-21" d="m243.93,411.49v10.7c-1.79,0-3.59-.39-4.95-1.18l-107.69-62.19c-2.73-1.58-4.95-5.25-4.95-8.21,0-2.78,1.95-6.18,4.44-7.89-2.22,1.59-2.04,3.92.5,5.39l107.69,62.19c1.36.79,3.15,1.19,4.95,1.19Z"/>
      <path class="cls-9" d="m121.7,342.58c-2.56-1.48-2.42-3.98-2.42-7.13v-148.75c0-3.15,2.21-6.99,4.95-8.57l189.63-109.48c2.73-1.58,7.02-1.66,9.59-.18,2.56,1.48,2.42,3.98,2.42,7.13v148.75c0,3.15-2.21,6.99-4.95,8.57l-189.63,109.48c-2.73,1.58-7.02,1.66-9.59.18Z"/>
      <path class="cls-24" d="m325.87,75.6c0-3.15-2.22-4.42-4.95-2.86l-189.63,109.49c-1.37.79-2.61,2.15-3.49,3.7l-7.06-4.11h0c.9-1.55,2.14-2.91,3.5-3.7l189.62-109.48c2.73-1.58,7.02-1.66,9.59-.18,2.56,1.48,2.43,3.98,2.43,7.13Z"/>
      <path class="cls-21" d="m130.71,342.7c-2.73,1.28-6.61,1.26-9-.13-2.56-1.47-2.42-3.97-2.42-7.13v-148.75c0-1.58.55-3.32,1.45-4.87l7.06,4.09h0c-.89,1.56-1.45,3.3-1.45,4.88v148.75c0,2.92,1.91,4.24,4.36,3.15Z"/>
      <path class="cls-20" d="m133.95,187.94l182.83-105.53c1.64-.95,2.97-.18,2.97,1.71v129.85c0,1.89-1.33,4.19-2.97,5.14l-182.83,105.53c-1.64.95-2.97.18-2.97-1.71v-129.85c0-1.89,1.33-4.19,2.97-5.14Z"/>
      <path class="cls-21" d="m144.98,342.7l176.02-101.62c1.37-.79,3.58-.79,4.95,0l2.93,1.61c1.37.79,1.37,2.07,0,2.86l-176.04,101.61c-1.37.79-3.58.79-4.95,0l-2.9-1.59c-1.37-.79-1.37-2.07,0-2.86Z"/>
      <g>
        <path class="cls-21" d="m158.78,350.9l176.02-101.62c1.37-.79,3.39-.9,4.52-.25l45.81,26.45c1.13.65.94,1.82-.43,2.61l-175.81,101.49c-1.37.79-3.39.9-4.52.25l-46.01-26.33c-1.13-.65-.94-1.81.42-2.6Z"/>
        <path class="cls-24" d="m311.3,291.96l5.51-3.18c.23-.14.26-.34.05-.46l-5.27-3.04c-.21-.12-.57-.11-.8.03l-5.51,3.18c-.23.13-.26.34-.05.46l5.27,3.04c.21.12.57.11.8-.03Zm-8.05-11.01l-5.51,3.18c-.23.14-.25.34-.05.46l5.27,3.04c.21.12.57.11.8-.03l5.51-3.18c.23-.14.26-.34.05-.46l-5.27-3.04c-.21-.12-.57-.11-.8.03Zm-17.8,10.28l-9.33,5.38c-.23.13-.26.34-.05.46l5.27,3.04c.21.12.57.11.8-.03l9.33-5.38c.23-.13.26-.34.05-.46l-5.27-3.04c-.21-.12-.57-.11-.8.03Zm9.75-5.63l-5.51,3.18c-.23.13-.26.34-.05.46l5.27,3.04c.21.12.57.11.8-.03l5.51-3.18c.23-.14.26-.34.05-.46l-5.27-3.04c-.21-.12-.57-.11-.8.03Zm-21.62,12.48l-5.51,3.18c-.23.14-.26.34-.05.46l5.27,3.04c.21.12.57.11.8-.03l5.51-3.18c.23-.13.25-.34.05-.46l-5.27-3.04c-.21-.12-.57-.11-.8.03Zm-8.05,4.65l-5.51,3.18c-.23.14-.26.34-.05.46l5.27,3.04c.21.12.57.11.8-.03l5.51-3.18c.23-.14.26-.34.05-.46l-5.27-3.04c-.21-.12-.57-.11-.8.03Zm20.67,12.42l5.51-3.18c.23-.13.26-.34.05-.46l-5.27-3.04c-.21-.12-.57-.11-.8.03l-5.51,3.18c-.23.14-.26.34-.05.46l5.27,3.04c.21.12.57.11.8-.03Zm-8.05,4.65l5.51-3.18c.23-.14.26-.34.05-.46l-5.27-3.04c-.21-.12-.57-.11-.8.03l-5.51,3.18c-.23.14-.26.34-.05.46l5.27,3.04c.21.12.57.11.8-.03Zm-8.05,4.65l5.51-3.18c.23-.13.26-.34.05-.46l-5.27-3.04c-.21-.12-.57-.11-.8.03l-5.51,3.18c-.23.14-.26.34-.05.46l5.27,3.04c.21.12.57.11.8-.03Zm-8.05,4.65l5.51-3.18c.23-.14.26-.34.05-.46l-5.27-3.04c-.21-.12-.57-.11-.8.03l-5.51,3.18c-.23.14-.26.34-.05.46l5.27,3.04c.21.12.57.11.8-.03Zm41.22-32.5l5.51-3.18c.23-.13.26-.34.05-.46l-5.27-3.04c-.21-.12-.57-.11-.8.03l-5.51,3.18c-.23.14-.26.34-.05.46l5.27,3.04c.21.12.57.11.8-.03Zm-9,13.89l12.29-7.1c.23-.14.26-.34.05-.46l-12.8-7.39c-.21-.12-.57-.11-.8.03l-6.36,3.67c-.23.14-.26.34-.05.46l6.78,3.91c.21.12.19.33-.05.46l-5.09,2.94c-.23.13-.26.34-.05.46l5.27,3.04c.21.12.57.11.8-.03Zm-36.78-3.12l-5.51,3.18c-.23.14-.26.34-.05.46l5.27,3.04c.21.12.57.11.8-.03l5.51-3.18c.23-.14.26-.34.05-.46l-5.27-3.04c-.21-.12-.57-.11-.8.03Zm-8.05,4.65l-5.51,3.18c-.23.14-.26.34-.05.46l5.27,3.04c.21.12.57.11.8-.03l5.51-3.18c.23-.13.26-.34.05-.46l-5.27-3.04c-.21-.12-.57-.11-.8.03Zm-44.57,49.65c.21.12.57.11.8-.03l5.51-3.18c.23-.14.26-.34.05-.46l-5.27-3.04c-.21-.12-.57-.11-.8.03l-5.51,3.18c-.23.14-.26.34-.05.46l5.27,3.04Zm-19.87-12.45l-5.51,3.18c-.23.14-.26.34-.05.46l5.27,3.04c.21.12.57.11.8-.03l5.51-3.18c.23-.14.26-.34.05-.46l-5.27-3.04c-.21-.12-.57-.11-.8.03Zm10.21,9.32c.21.12.57.11.8-.03l5.51-3.18c.23-.14.26-.34.05-.46l-5.27-3.04c-.21-.12-.57-.11-.8.03l-5.51,3.18c-.23.14-.26.34-.05.46l5.27,3.04Zm22.22,5l5.51-3.18c.23-.14.26-.34.05-.46l-5.27-3.04c-.21-.12-.57-.11-.8.03l-5.51,3.18c-.23.13-.26.34-.05.46l5.27,3.04c.21.12.57.11.8-.03Zm-8.85,4.68c.21.12.57.11.8-.03l5.51-3.18c.23-.14.26-.34.05-.46l-5.27-3.04c-.21-.12-.57-.11-.8.03l-5.51,3.18c-.23.14-.26.34-.05.46l5.27,3.04Zm-15.53-23.65l-5.51,3.18c-.23.14-.26.34-.05.46l5.27,3.04c.21.12.57.11.8-.03l5.51-3.18c.23-.14.26-.34.05-.46l-5.27-3.04c-.21-.12-.57-.11-.8.03Zm40.27-23.25l-5.51,3.18c-.23.14-.26.34-.05.46l5.27,3.04c.21.12.57.11.8-.03l5.51-3.18c.23-.13.26-.34.05-.46l-5.27-3.04c-.21-.12-.57-.11-.8.03Zm-32.22,18.6l-5.51,3.18c-.23.13-.26.34-.05.46l5.27,3.04c.21.12.57.11.8-.03l5.51-3.18c.23-.14.26-.34.05-.46l-5.27-3.04c-.21-.12-.57-.11-.8.03Zm40.27-23.25l-5.51,3.18c-.23.13-.26.34-.05.46l5.27,3.04c.21.12.57.11.8-.03l5.51-3.18c.23-.14.26-.34.05-.46l-5.27-3.04c-.21-.12-.57-.11-.8.03Zm-16.11,9.3l-5.51,3.18c-.23.14-.26.34-.05.46l5.27,3.04c.21.12.57.11.8-.03l5.51-3.18c.23-.13.26-.34.05-.46l-5.27-3.04c-.21-.12-.57-.11-.8.03Zm-8.05,4.65l-5.51,3.18c-.23.13-.26.34-.05.46l5.27,3.04c.21.12.57.11.8-.03l5.51-3.18c.23-.14.26-.34.05-.46l-5.27-3.04c-.21-.12-.57-.11-.8.03Zm-8.05,4.65l-5.51,3.18c-.23.14-.26.34-.05.46l5.27,3.04c.21.12.57.11.8-.03l5.51-3.18c.23-.14.26-.34.05-.46l-5.27-3.04c-.21-.12-.57-.11-.8.03Zm36.77,3.12l5.51-3.18c.23-.14.26-.34.05-.46l-5.27-3.04c-.21-.12-.57-.11-.8.03l-5.51,3.18c-.23.14-.26.34-.05.46l5.27,3.04c.21.12.57.11.8-.03Zm75.14-67.74l-5.51,3.18c-.23.14-.26.34-.05.46l5.27,3.04c.21.12.57.11.8-.03l5.51-3.18c.23-.14.25-.34.05-.46l-5.27-3.04c-.21-.12-.57-.11-.8.03Zm-9.75,5.63l-5.51,3.18c-.23.13-.26.34-.05.46l5.27,3.04c.21.12.57.11.8-.03l5.51-3.18c.23-.14.26-.34.05-.46l-5.27-3.04c-.21-.12-.57-.11-.8.03Zm17.8-10.28l-5.51,3.18c-.23.14-.26.34-.05.46l5.27,3.04c.21.12.57.11.8-.03l5.51-3.18c.23-.14.26-.34.05-.46l-5.27-3.04c-.21-.12-.57-.11-.8.03Zm-44.52,41.36l5.51-3.18c.23-.14.26-.34.05-.46l-5.27-3.04c-.21-.12-.57-.11-.8.03l-5.51,3.18c-.23.14-.26.34-.05.46l5.27,3.04c.21.12.57.11.8-.03Zm53.38-46.04c-.21-.12-.57-.11-.8.03l-5.51,3.18c-.23.14-.26.34-.05.46l5.27,3.04c.21.12.57.11.8-.03l5.51-3.18c.23-.14.26-.34.05-.46l-5.27-3.04Zm-84,72.41l5.51-3.18c.23-.14.26-.34.05-.46l-5.27-3.04c-.21-.12-.57-.11-.8.03l-5.51,3.18c-.23.13-.26.34-.05.46l5.27,3.04c.21.12.57.11.8-.03Zm98.78-57.03l5.51-3.18c.23-.14.26-.34.05-.46l-5.27-3.04c-.21-.12-.57-.11-.8.03l-5.51,3.18c-.23.13-.26.34-.05.46l5.27,3.04c.21.12.57.11.8-.03Zm-15.59.3l5.51-3.18c.23-.13.26-.34.05-.46l-5.27-3.04c-.21-.12-.57-.11-.8.03l-5.51,3.18c-.23.14-.26.34-.05.46l5.27,3.04c.21.12.57.11.8-.03Zm8.34-11.34c-.21-.12-.57-.11-.8.03l-5.51,3.18c-.23.13-.26.34-.05.46l5.27,3.04c.21.12.57.11.8-.03l5.51-3.18c.23-.14.26-.34.05-.46l-5.27-3.04Zm1.7-.98l12.8,7.39c.21.12.57.11.8-.03l5.51-3.18c.23-.14.26-.34.05-.46l-12.8-7.39c-.21-.12-.57-.11-.8.03l-5.51,3.18c-.23.14-.26.34-.05.46Zm-18.61,10.31l-5.51,3.18c-.23.13-.26.34-.05.46l5.27,3.04c.21.12.57.11.8-.03l5.51-3.18c.23-.14.26-.34.05-.46l-5.27-3.04c-.21-.12-.57-.11-.8.03Zm-60.62,35l-5.51,3.18c-.23.14-.26.34-.05.46l5.27,3.04c.21.12.57.11.8-.03l5.51-3.18c.23-.14.26-.34.05-.46l-5.27-3.04c-.21-.12-.57-.11-.8.03Zm75.92-28.61c.21.12.57.11.8-.03l5.51-3.18c.23-.14.26-.34.05-.46l-5.27-3.04c-.21-.12-.57-.11-.8.03l-5.51,3.18c-.23.13-.26.34-.05.46l5.27,3.04Zm-67.87,23.96l-5.51,3.18c-.23.14-.26.34-.05.46l5.27,3.04c.21.12.57.11.8-.03l5.51-3.18c.23-.14.26-.34.05-.46l-5.27-3.04c-.21-.12-.57-.11-.8.03Zm-63.13,51.67c.21.12.57.11.8-.03l5.51-3.18c.23-.14.26-.34.05-.46l-5.27-3.04c-.21-.12-.57-.11-.8.03l-5.51,3.18c-.23.14-.26.34-.05.46l5.27,3.04Zm-9.37-9.81l-5.51,3.18c-.23.13-.26.34-.05.46l5.27,3.04c.21.12.57.11.8-.03l5.51-3.18c.23-.14.26-.34.05-.46l-5.27-3.04c-.21-.12-.57-.11-.8.03Zm18.22,5.14l5.51-3.18c.23-.14.26-.34.05-.46l-5.27-3.04c-.21-.12-.57-.11-.8.03l-5.51,3.18c-.23.14-.26.34-.05.46l5.27,3.04c.21.12.57.11.8-.03Zm8.05-4.65l5.51-3.18c.23-.14.26-.34.05-.46l-5.27-3.04c-.21-.12-.57-.11-.8.03l-5.51,3.18c-.23.14-.26.34-.05.46l5.27,3.04c.21.12.57.11.8-.03Zm8.05-4.65l5.51-3.18c.23-.14.26-.34.05-.46l-5.27-3.04c-.21-.12-.57-.11-.8.03l-5.51,3.18c-.23.14-.26.34-.05.46l5.27,3.04c.21.12.57.11.8-.03Zm-26.28-.48l-5.51,3.18c-.23.14-.26.34-.05.46l5.27,3.04c.21.12.57.11.8-.03l5.51-3.18c.23-.14.26-.34.05-.46l-5.27-3.04c-.21-.12-.57-.11-.8.03Zm8.05-4.65l-5.51,3.18c-.23.14-.26.34-.05.46l5.27,3.04c.21.12.57.11.8-.03l5.51-3.18c.23-.13.26-.34.05-.46l-5.27-3.04c-.21-.12-.57-.11-.8.03Zm32.22-18.6l-5.51,3.18c-.23.14-.26.34-.05.46l5.27,3.04c.21.12.57.11.8-.03l5.51-3.18c.23-.14.26-.34.05-.46l-5.27-3.04c-.21-.12-.57-.11-.8.03Zm-8.05,4.65l-5.51,3.18c-.23.13-.26.34-.05.46l5.27,3.04c.21.12.57.11.8-.03l5.51-3.18c.23-.14.26-.34.05-.46l-5.27-3.04c-.21-.12-.57-.11-.8.03Zm16.11-9.3l-5.51,3.18c-.23.14-.26.34-.05.46l5.27,3.04c.21.12.57.11.8-.03l5.51-3.18c.23-.13.26-.34.05-.46l-5.27-3.04c-.21-.12-.57-.11-.8.03Zm-32.22,18.6l-5.51,3.18c-.23.13-.26.34-.05.46l5.27,3.04c.21.12.57.11.8-.03l5.51-3.18c.23-.14.26-.34.05-.46l-5.27-3.04c-.21-.12-.57-.11-.8.03Zm8.05-4.65l-5.51,3.18c-.23.14-.26.34-.05.46l5.27,3.04c.21.12.57.11.8-.03l5.51-3.18c.23-.14.26-.34.05-.46l-5.27-3.04c-.21-.12-.57-.11-.8.03Zm-10.28,30.29l5.51-3.18c.23-.13.26-.34.05-.46l-5.27-3.04c-.21-.12-.57-.11-.8.03l-5.51,3.18c-.23.14-.26.34-.05.46l5.27,3.04c.21.12.57.11.8-.03Zm-42.47-2l-5.27-3.04c-.21-.12-.57-.11-.8.03l-5.51,3.18c-.23.13-.26.34-.05.46l5.27,3.04c.21.12.57.11.8-.03l5.51-3.18c.23-.14.26-.34.05-.46Zm10.5,2.64l-5.27-3.04c-.21-.12-.57-.11-.8.03l-8.48,4.89c-.23.14-.26.34-.05.46l5.27,3.04c.21.12.57.11.8-.03l8.48-4.9c.23-.14.26-.34.05-.46Zm-18.37-8.65l-5.27-3.04c-.21-.12-.57-.11-.8.03l-6.78,3.92c-.23.13-.26.34-.05.46l5.27,3.04c.21.12.57.11.8-.03l6.78-3.92c.23-.13.26-.34.05-.46Zm5.2-3c.21.12.57.11.8-.03l5.51-3.18c.23-.14.26-.34.05-.46l-5.27-3.04c-.21-.12-.57-.11-.8.03l-5.51,3.18c-.23.14-.26.34-.05.46l5.27,3.04Zm22.82,14.77l-5.27-3.04c-.21-.12-.57-.11-.8.03l-10.6,6.12c-.23.14-.26.34-.05.46l5.27,3.04c.21.12.57.11.8-.03l10.6-6.12c.23-.14.26-.34.05-.46Zm3.72,6.55l-5.27-3.04c-.21-.12-.57-.11-.8.03l-6.78,3.92c-.23.14-.26.34-.05.46l5.27,3.04c.21.12.57.11.8-.03l6.78-3.92c.23-.14.25-.34.05-.46Zm33.35-55.9c.21.12.57.11.8-.03l5.51-3.18c.23-.13.26-.34.05-.46l-5.27-3.04c-.21-.12-.57-.11-.8.03l-5.51,3.18c-.23.14-.26.34-.05.46l5.27,3.04Zm-16.11,9.3c.21.12.57.11.8-.03l5.51-3.18c.23-.13.26-.34.05-.46l-5.27-3.04c-.21-.12-.57-.11-.8.03l-5.51,3.18c-.23.14-.26.34-.05.46l5.27,3.04Zm-35.72,20.62c.21.12.57.11.8-.03l5.51-3.18c.23-.14.26-.34.05-.46l-5.27-3.04c-.21-.12-.57-.11-.8.03l-5.51,3.18c-.23.13-.26.34-.05.46l5.27,3.04Zm43.78-25.28c.21.12.57.11.8-.03l5.51-3.18c.23-.13.26-.34.05-.46l-5.27-3.04c-.21-.12-.57-.11-.8.03l-5.51,3.18c-.23.14-.26.34-.05.46l5.27,3.04Zm-16.11,9.3c.21.12.57.11.8-.03l5.51-3.18c.23-.14.26-.34.05-.46l-5.27-3.04c-.21-.12-.57-.11-.8.03l-5.51,3.18c-.23.14-.26.34-.05.46l5.27,3.04Zm-5.23,42.28c-.21-.12-.57-.11-.8.03l-8.48,4.9c-.23.13-.26.34-.05.46l5.27,3.04c.21.12.57.11.8-.03l8.48-4.89c.23-.14.26-.34.05-.46l-5.27-3.04Zm-6.33-35.6c.21.12.57.11.8-.03l5.51-3.18c.23-.14.26-.34.05-.46l-5.27-3.04c-.21-.12-.57-.11-.8.03l-5.51,3.18c-.23.14-.26.34-.05.46l5.27,3.04Zm-8.05,4.65c.21.12.57.11.8-.03l5.51-3.18c.23-.14.26-.34.05-.46l-5.27-3.04c-.21-.12-.57-.11-.8.03l-5.51,3.18c-.23.14-.26.34-.05.46l5.27,3.04Zm163.61-55.2c-.21-.12-.57-.11-.8.03l-13.57,7.83c-.23.14-.26.34-.05.46l5.27,3.04c.21.12.57.11.8-.03l13.57-7.83c.23-.13.26-.34.05-.46l-5.27-3.04Zm-17.8,10.28c-.21-.12-.57-.11-.8.03l-5.51,3.18c-.23.14-.26.34-.05.46l5.27,3.04c.21.12.57.11.8-.03l5.51-3.18c.23-.13.26-.34.05-.46l-5.27-3.04Zm-108.71,60.59l5.51-3.18c.23-.14.26-.34.05-.46l-5.27-3.04c-.21-.12-.57-.11-.8.03l-5.51,3.18c-.23.14-.26.34-.05.46l5.27,3.04c.21.12.57.11.8-.03Zm92.6-51.29c-.21-.12-.57-.11-.8.03l-5.51,3.18c-.23.14-.26.34-.05.46l5.27,3.04c.21.12.57.11.8-.03l5.51-3.18c.23-.14.26-.34.05-.46l-5.27-3.04Zm41.97-24.23c-.21-.12-.57-.11-.8.03l-5.51,3.18c-.23.14-.26.34-.05.46l5.27,3.04c.21.12.57.11.8-.03l5.51-3.18c.23-.14.26-.34.05-.46l-5.27-3.04Zm13.33-1.61l-12.8-7.39c-.21-.12-.57-.11-.8.03l-5.51,3.18c-.23.14-.26.34-.05.46l12.8,7.39c.21.12.57.11.8-.03l5.51-3.18c.23-.13.26-.34.05-.46Zm-85.4,43.21c-.21-.12-.57-.11-.8.03l-6.78,3.92c-.23.13-.26.34-.05.46l5.27,3.04c.21.12.57.11.8-.03l6.78-3.92c.23-.14.26-.34.05-.46l-5.27-3.04Zm20.35-11.75c-.21-.12-.57-.11-.8.03l-8.48,4.9c-.23.13-.26.34-.05.46l5.27,3.04c.21.12.57.11.8-.03l8.48-4.9c.23-.14.26-.34.05-.46l-5.27-3.04Zm-39,22.52c-.21-.12-.57-.11-.8.03l-45.36,26.19c-.23.14-.26.34-.05.46l5.27,3.04c.21.12.57.11.8-.03l45.36-26.19c.23-.14.26-.34.05-.46l-5.27-3.04Zm-47.9,27.66c-.21-.12-.57-.11-.8.03l-6.78,3.92c-.23.14-.26.34-.05.46l5.27,3.04c.21.12.57.11.8-.03l6.78-3.92c.23-.14.25-.34.05-.46l-5.27-3.04Zm57.23-33.04c-.21-.12-.57-.11-.8.03l-6.78,3.92c-.23.14-.26.34-.05.46l5.27,3.04c.21.12.57.11.8-.03l6.78-3.92c.23-.13.26-.34.05-.46l-5.27-3.04Zm-66.56,38.43c-.21-.12-.57-.11-.8.03l-6.78,3.92c-.23.14-.26.34-.05.46l5.27,3.04c.21.12.57.11.8-.03l6.78-3.92c.23-.14.26-.34.05-.46l-5.27-3.04Zm85.21-49.2c-.21-.12-.57-.11-.8.03l-6.78,3.92c-.23.13-.26.34-.05.46l5.27,3.04c.21.12.57.11.8-.03l6.78-3.92c.23-.14.26-.34.05-.46l-5.27-3.04Zm28.83-16.64c-.21-.12-.57-.11-.8.03l-5.51,3.18c-.23.14-.26.34-.05.46l5.27,3.04c.21.12.57.11.8-.03l5.51-3.18c.23-.14.26-.34.05-.46l-5.27-3.04Zm18.04-12.59l5.51-3.18c.23-.14.26-.34.05-.46l-5.27-3.04c-.21-.12-.57-.11-.8.03l-5.51,3.18c-.23.14-.26.34-.05.46l5.27,3.04c.21.12.57.11.8-.03Zm-32.87,1.58l5.51-3.18c.23-.13.26-.34.05-.46l-5.27-3.04c-.21-.12-.57-.11-.8.03l-5.51,3.18c-.23.14-.26.34-.05.46l5.27,3.04c.21.12.57.11.8-.03Zm-21.39,29.75l16.11-9.3c.23-.14.25-.34.05-.46l-5.27-3.04c-.21-.12-.57-.11-.8.03l-16.11,9.3c-.23.13-.26.34-.05.46l5.27,3.04c.21.12.57.11.8-.03Zm45.41-26.65c.21.12.57.11.8-.03l5.51-3.18c.23-.14.26-.34.05-.46l-5.27-3.04c-.21-.12-.57-.11-.8.03l-5.51,3.18c-.23.13-.25.34-.05.46l5.27,3.04Zm-6.73-4.38l5.51-3.18c.23-.13.26-.34.05-.46l-5.27-3.04c-.21-.12-.57-.11-.8.03l-5.51,3.18c-.23.14-.26.34-.05.46l5.27,3.04c.21.12.57.11.8-.03Zm-46.73,35.68l5.51-3.18c.23-.14.26-.34.05-.46l-5.27-3.04c-.21-.12-.57-.11-.8.03l-5.51,3.18c-.23.13-.26.34-.05.46l5.27,3.04c.21.12.57.11.8-.03Zm35.66-21.02c.21.12.57.11.8-.03l5.51-3.18c.23-.14.26-.34.05-.46l-5.27-3.04c-.21-.12-.57-.11-.8.03l-5.51,3.18c-.23.14-.26.34-.05.46l5.27,3.04Zm-75.93,44.27l5.51-3.18c.23-.13.25-.34.05-.46l-5.27-3.04c-.21-.12-.57-.11-.8.03l-5.51,3.18c-.23.13-.26.34-.05.46l5.27,3.04c.21.12.57.11.8-.03Zm8.05-4.65l5.51-3.18c.23-.14.26-.34.05-.46l-5.27-3.04c-.21-.12-.57-.11-.8.03l-5.51,3.18c-.23.13-.26.34-.05.46l5.27,3.04c.21.12.57.11.8-.03Zm-16.11,9.3l5.51-3.18c.23-.14.26-.34.05-.46l-5.27-3.04c-.21-.12-.57-.11-.8.03l-5.51,3.18c-.23.14-.26.34-.05.46l5.27,3.04c.21.12.57.11.8-.03Zm32.22-18.6l5.51-3.18c.23-.14.26-.34.05-.46l-5.27-3.04c-.21-.12-.57-.11-.8.03l-5.51,3.18c-.23.13-.26.34-.05.46l5.27,3.04c.21.12.57.11.8-.03Zm-8.05,4.65l5.51-3.18c.23-.13.26-.34.05-.46l-5.27-3.04c-.21-.12-.57-.11-.8.03l-5.51,3.18c-.23.14-.26.34-.05.46l5.27,3.04c.21.12.57.11.8-.03Zm16.11-9.3l5.51-3.18c.23-.14.26-.34.05-.46l-5.27-3.04c-.21-.12-.57-.11-.8.03l-5.51,3.18c-.23.13-.26.34-.05.46l5.27,3.04c.21.12.57.11.8-.03Zm43.95-64.69c.21.12.57.11.8-.03l5.51-3.18c.23-.14.26-.34.05-.46l-1.4-.81c-.21-.12-.57-.11-.8.03l-5.51,3.18c-.23.13-.25.34-.05.46l1.4.81Zm-40.03,25.35c.21.12.57.11.8-.03l5.51-3.18c.23-.14.26-.34.05-.46l-5.27-3.04c-.21-.12-.57-.11-.8.03l-5.51,3.18c-.23.14-.26.34-.05.46l5.27,3.04Zm16.11-9.3c.21.12.57.11.8-.03l5.51-3.18c.23-.14.26-.34.05-.46l-5.27-3.04c-.21-.12-.57-.11-.8.03l-5.51,3.18c-.23.13-.26.34-.05.46l5.27,3.04Zm-25.94,14.98c.21.12.57.11.8-.03l5.51-3.18c.23-.13.26-.34.05-.46l-5.27-3.04c-.21-.12-.57-.11-.8.03l-5.51,3.18c-.23.14-.26.34-.05.46l5.27,3.04Zm17.89-10.33c.21.12.57.11.8-.03l5.51-3.18c.23-.14.26-.34.05-.46l-5.27-3.04c-.21-.12-.57-.11-.8.03l-5.51,3.18c-.23.14-.26.34-.05.46l5.27,3.04Zm-34,19.63c.21.12.57.11.8-.03l5.51-3.18c.23-.14.26-.34.05-.46l-5.27-3.04c-.21-.12-.57-.11-.8.03l-5.51,3.18c-.23.14-.26.34-.05.46l5.27,3.04Zm8.05-4.65c.21.12.57.11.8-.03l5.51-3.18c.23-.14.25-.34.05-.46l-5.27-3.04c-.21-.12-.57-.11-.8.03l-5.51,3.18c-.23.14-.26.34-.05.46l5.27,3.04Zm41.82-26.38c.21.12.57.11.8-.03l5.51-3.18c.23-.13.25-.34.05-.46l-1.4-.81c-.21-.12-.57-.11-.8.03l-5.51,3.18c-.23.14-.26.34-.05.46l1.4.81Zm24.16-13.95c.21.12.57.11.8-.03l5.51-3.18c.23-.14.26-.34.05-.46l-1.4-.81c-.21-.12-.57-.11-.8.03l-5.51,3.18c-.23.14-.26.34-.05.46l1.4.81Zm11.08,6.39c.21.12.57.11.8-.03l5.51-3.18c.23-.14.26-.34.05-.46l-5.27-3.04c-.21-.12-.57-.11-.8.03l-5.51,3.18c-.23.14-.26.34-.05.46l5.27,3.04Zm15.34,17.67l5.51-3.18c.23-.13.26-.34.05-.46l-5.27-3.04c-.21-.12-.57-.11-.8.03l-5.51,3.18c-.23.14-.26.34-.05.46l5.27,3.04c.21.12.57.11.8-.03Zm-42.53-14.76c.21.12.57.11.8-.03l5.51-3.18c.23-.14.26-.34.05-.46l-1.4-.81c-.21-.12-.57-.11-.8.03l-5.51,3.18c-.23.14-.26.34-.05.46l1.4.81Zm-65.98,40.33c.21.12.57.11.8-.03l5.51-3.18c.23-.14.26-.34.05-.46l-5.27-3.04c-.21-.12-.57-.11-.8.03l-5.51,3.18c-.23.14-.26.34-.05.46l5.27,3.04Z"/>
      </g>
      <polygon class="cls-9" points="275.61 348.19 276.74 348.84 306.76 366.16 360.13 335.35 361.24 334.71 330.1 316.74 275.61 348.19"/>
      <polygon class="cls-21" points="276.74 348.84 306.76 366.16 360.13 335.35 330.1 318.02 276.74 348.84"/>
    </g>
  </g>
  <g id="Mail_Box" data-name="Mail Box">
    <g id="MailBox">
      <g>
        <g>
          <path class="cls-17" d="m107.06,213.2l-12.23-7.06c-.54-.31-.94-.39-1.15-.27-.26.15-1.27.74-1.49.86-.26.15-.26.59.07,1.27l2.97,6.16-2.22,2.04c-1.02.93-.87,2.25.32,2.94l12.23,7.06,1.49-.86v-12.14Z"/>
          <path class="cls-11" d="m107.06,213.2l-12.23-7.06c-.54-.31-.94-.39-1.15-.27-.26.15-1.27.74-1.49.86-.26.15-.26.59.07,1.27l2.97,6.16-2.22,2.04c-1.02.93-.87,2.25.32,2.94l12.23,7.06,1.49-.86v-12.14Z"/>
          <path class="cls-17" d="m93.34,207.01c-1.2-.69-1.68-.24-1.08,1l2.97,6.16-2.22,2.04c-1.02.93-.87,2.25.32,2.94l12.23,7.06v-12.14l-12.23-7.06Z"/>
        </g>
        <path class="cls-24" d="m107.01,252.11c-.79,0-1.44-.64-1.44-1.44v-40.62c0-.79.64-1.44,1.44-1.44s1.44.64,1.44,1.44v40.62c0,.79-.64,1.44-1.44,1.44Z"/>
      </g>
      <g>
        <path class="cls-21" d="m54.39,360.27v-2.54h.63c.73-1.48,2.1-2.87,4.11-4.04,6.32-3.65,16.56-3.65,22.88,0,2.01,1.16,3.38,2.56,4.11,4.04h.62v2.46c.05,2.43-1.52,4.86-4.73,6.72-6.32,3.65-16.56,3.65-22.88,0-3.17-1.83-4.75-4.24-4.74-6.64Z"/>
        <path class="cls-24" d="m82,351.13c-6.32-3.65-16.56-3.65-22.88,0-6.32,3.65-6.32,9.56,0,13.21,6.32,3.65,16.56,3.65,22.88,0,6.32-3.65,6.32-9.56,0-13.21Z"/>
      </g>
      <g>
        <path class="cls-9" d="m74.73,269.77v86.85c0,.62-.41,1.23-1.22,1.7-1.63.94-4.26.94-5.89,0-.81-.47-1.22-1.08-1.22-1.7v-86.85h8.33Z"/>
        <polygon class="cls-21" points="66.4 280.28 66.4 288.45 74.73 293.25 74.73 285.1 66.4 280.28"/>
      </g>
      <g>
        <path class="cls-17" d="m96.6,262.01l15.4,8.9c-.08.12-.19.24-.3.31l-26.94,15.55c-.23.13-.41.03-.41-.24v-19.41c0-3.38.78-7.14,2.25-10.88l10,5.77Z"/>
        <path class="cls-4" d="m96.6,262.01l15.4,8.9c-.08.12-.19.24-.3.31l-26.94,15.55c-.23.13-.41.03-.41-.24v-19.41c0-3.38.78-7.14,2.25-10.88l10,5.77Z"/>
        <path class="cls-17" d="m112.12,249.25v21.72l-25.51-14.73c.03-.07.05-.14.08-.21,2.74-6.83,7.35-12.63,12.35-15.51,2.05-1.19,3.99-1.79,5.77-1.79,4.51,0,7.31,4.03,7.31,10.52Z"/>
        <path class="cls-8" d="m112.12,249.25v21.72l-25.51-14.73c.03-.07.05-.14.08-.21,2.74-6.83,7.35-12.63,12.35-15.51,2.05-1.19,3.99-1.79,5.77-1.79,4.51,0,7.31,4.03,7.31,10.52Z"/>
      </g>
      <g>
        <path class="cls-17" d="m139.83,295.22v-1.94h-.18v.28c-.11-.53-.28-1.05-.51-1.57-1.02-2.38-3.16-4.66-6.44-6.55l-18.23-10.53c-.76-.44-1.99-.44-2.75,0l-27.88,16.09c-.29-.26-.62-.52-.89-.98v1.95s0,0,0,0h0c0,.29.19.57.57.79l18.23,10.53c4.88,2.82,11.26,4.2,17.44,4.12,5.35-.07,10.55-1.24,14.51-3.53,4.1-2.36,6.12-5.48,6.12-8.67h0Z"/>
        <path class="cls-4" d="m139.83,295.22v-1.94h-.18v.28c-.11-.53-.28-1.05-.51-1.57-1.02-2.38-3.16-4.66-6.44-6.55l-18.23-10.53c-.76-.44-1.99-.44-2.75,0l-27.88,16.09c-.29-.26-.62-.52-.89-.98v1.95s0,0,0,0h0c0,.29.19.57.57.79l18.23,10.53c4.88,2.82,11.26,4.2,17.44,4.12,5.35-.07,10.55-1.24,14.51-3.53,4.1-2.36,6.12-5.48,6.12-8.67h0Z"/>
        <path class="cls-17" d="m139.14,291.99c-1.02-2.38-3.16-4.66-6.44-6.55l-18.23-10.53c-.76-.44-1.99-.44-2.75,0l-27.88,16.09,17.91,10.34c4.88,2.82,11.26,4.2,17.44,4.12,5.35-.07,10.55-1.24,14.51-3.53,3.68-2.12,5.69-4.85,6.06-7.7-.09-.76-.3-1.51-.63-2.26Z"/>
        <path class="cls-15" d="m139.14,291.99c-1.02-2.38-3.16-4.66-6.44-6.55l-18.23-10.53c-.76-.44-1.99-.44-2.75,0l-27.88,16.09,17.91,10.34c4.88,2.82,11.26,4.2,17.44,4.12,5.35-.07,10.55-1.24,14.51-3.53,3.68-2.12,5.69-4.85,6.06-7.7-.09-.76-.3-1.51-.63-2.26Z"/>
        <path class="cls-17" d="m139.76,294.24c-.09-.76-.3-1.51-.63-2.26-1.02-2.38-3.16-4.66-6.44-6.55l-18.23-10.53c-.76-.44-1.99-.44-2.75,0l-27.88,16.09-.32-.18c-.76-.44-.76-1.15,0-1.59l28.19-16.28c.76-.44,1.99-.44,2.75,0l18.23,10.53c3.28,1.89,5.42,4.17,6.44,6.55.34.79.56,1.59.64,2.4.07.61.06,1.21-.02,1.81Z"/>
        <path class="cls-8" d="m139.76,294.24c-.09-.76-.3-1.51-.63-2.26-1.02-2.38-3.16-4.66-6.44-6.55l-18.23-10.53c-.76-.44-1.99-.44-2.75,0l-27.88,16.09-.32-.18c-.76-.44-.76-1.15,0-1.59l28.19-16.28c.76-.44,1.99-.44,2.75,0l18.23,10.53c3.28,1.89,5.42,4.17,6.44,6.55.34.79.56,1.59.64,2.4.07.61.06,1.21-.02,1.81Z"/>
      </g>
      <polygon class="cls-17" points="84.14 288.96 112.33 272.68 111.71 271.21 84.76 286.77 84.14 288.96"/>
      <polygon class="cls-26" points="84.14 288.96 112.33 272.68 111.71 271.21 84.76 286.77 84.14 288.96"/>
      <g>
        <g id="Letter">
          <path class="cls-13" d="m109.63,247.96c0-.43-.3-.95-.67-1.16l-34.32-19.82c-.37-.21-.97-.21-1.34,0l-.76.44c-.37.21-.67.73-.67,1.16v26.31c0,.43.3.95.67,1.16l34.32,19.82c.37.21.97.21,1.34,0l.76-.44c.37-.21.67-.74.67-1.16v-26.31Z"/>
          <path class="cls-10" d="m109.44,247.3l-1.9,1.1-35.47-20.48c.12-.21.29-.39.47-.5l.76-.43c.37-.22.97-.22,1.34,0l34.32,19.82c.19.11.36.29.48.5Z"/>
          <g>
            <path class="cls-17" d="m107.38,276.01s.08.01.13.01h-.04s-.06,0-.09-.01Z"/>
            <path class="cls-22" d="m107.54,248.39l-.35.21c.21.08.35.29.35.57v26.31c0,.22-.08.37-.21.44-.09.04-.2.05-.32.01-.05-.02-.1-.04-.14-.06l-34.33-19.82c-.37-.22-.67-.74-.67-1.16v-26.31c0-.22.08-.46.2-.67l35.47,20.48Z"/>
          </g>
          <path class="cls-15" d="m107.53,248.4l-15.9,5.94c-1.13.42-2.41,0-3.07-1.01l-2.55-3.91-14.08-21.57,13.57,21.72-13.64,5.34c0,.22.08.46.21.67l13.47-5.95,2.97,4.75c.68,1.09,2.06,1.51,3.23.99l2.11-.93,13.47,21.49c.13-.07.21-.22.21-.44v-.44l-13.61-20.64,13.61-6.01Z"/>
        </g>
        <g id="Letter-2" data-name="Letter">
          <path class="cls-13" d="m101.51,252.61c0-.43-.3-.95-.67-1.16l-34.32-19.82c-.37-.21-.97-.21-1.34,0l-.76.44c-.37.21-.67.73-.67,1.16v26.31c0,.43.3.95.67,1.16l34.32,19.82c.37.21.97.21,1.34,0l.76-.44c.37-.21.67-.74.67-1.16v-26.31Z"/>
          <path class="cls-10" d="m101.31,251.95l-1.9,1.1-35.47-20.48c.12-.21.29-.39.47-.5l.76-.43c.37-.22.97-.22,1.34,0l34.32,19.82c.19.11.36.29.48.5Z"/>
          <g>
            <path class="cls-17" d="m99.25,280.67s.08.01.13.01h-.04s-.06,0-.09-.01Z"/>
            <path class="cls-22" d="m99.41,253.05l-.35.21c.21.08.35.29.35.57v26.31c0,.22-.08.37-.21.44-.09.04-.2.05-.32.01-.05-.02-.1-.04-.14-.06l-34.33-19.82c-.37-.22-.67-.74-.67-1.16v-26.31c0-.22.08-.46.2-.67l35.47,20.48Z"/>
          </g>
          <path class="cls-15" d="m99.41,253.05l-15.9,5.94c-1.13.42-2.41,0-3.07-1.01l-2.55-3.91-14.08-21.57,13.57,21.72-13.64,5.34c0,.22.08.46.21.67l13.47-5.95,2.97,4.75c.68,1.09,2.06,1.51,3.23.99l2.11-.93,13.47,21.49c.13-.07.21-.22.21-.44v-.44l-13.61-20.64,13.61-6.01Z"/>
        </g>
        <g id="Letter-3" data-name="Letter">
          <path class="cls-13" d="m93.38,257.27c0-.43-.3-.95-.67-1.16l-34.32-19.82c-.37-.21-.97-.21-1.34,0l-.76.44c-.37.21-.67.73-.67,1.16v26.31c0,.43.3.95.67,1.16l34.32,19.82c.37.21.97.21,1.34,0l.76-.44c.37-.21.67-.74.67-1.16v-26.31Z"/>
          <path class="cls-10" d="m93.19,256.61l-1.9,1.1-35.47-20.48c.12-.21.29-.39.47-.5l.76-.43c.37-.22.97-.22,1.34,0l34.32,19.82c.19.11.36.29.48.5Z"/>
          <g>
            <path class="cls-17" d="m91.13,285.32s.08.01.13.01h-.04s-.06,0-.09-.01Z"/>
            <path class="cls-22" d="m91.29,257.7l-.35.21c.21.08.35.29.35.57v26.31c0,.22-.08.37-.21.44-.09.04-.2.05-.32.01-.05-.02-.1-.04-.14-.06l-34.33-19.82c-.37-.22-.67-.74-.67-1.16v-26.31c0-.22.08-.46.2-.67l35.47,20.48Z"/>
          </g>
          <path class="cls-15" d="m91.28,257.71l-15.9,5.94c-1.13.42-2.41,0-3.07-1.01l-2.55-3.91-14.08-21.57,13.57,21.72-13.64,5.34c0,.22.08.46.21.67l13.47-5.95,2.97,4.75c.68,1.09,2.06,1.51,3.23.99l2.11-.93,13.47,21.49c.13-.07.21-.22.21-.44v-.44l-13.61-20.64,13.61-6.01Z"/>
        </g>
      </g>
      <g>
        <path class="cls-17" d="m108.55,238.03c-2.73-1.43-6.35-1.18-10.31,1.11-4.45,2.56-8.46,7.19-11.27,12.51-.66,1.23-1.24,2.5-1.76,3.78-1.55,3.86-2.45,7.9-2.45,11.68v22.18c-.5,0-.99-.12-1.37-.33l-39.49-22.81c-.75-.44-1.37-1.51-1.37-2.38v-21.06c0-10.52,6.93-23.04,15.47-27.98,4.05-2.34,7.73-2.53,10.49-.98v-.02s42.06,24.3,42.06,24.3Z"/>
        <path class="cls-15" d="m108.55,238.03c-2.73-1.43-6.35-1.18-10.31,1.11-4.45,2.56-8.46,7.19-11.27,12.51-.66,1.23-1.24,2.5-1.76,3.78-1.55,3.86-2.45,7.9-2.45,11.68v22.18c-.5,0-.99-.12-1.37-.33l-39.49-22.81c-.75-.44-1.37-1.51-1.37-2.38v-21.06c0-10.52,6.93-23.04,15.47-27.98,4.05-2.34,7.73-2.53,10.49-.98v-.02s42.06,24.3,42.06,24.3Z"/>
        <path class="cls-26" d="m41.9,266.15l39.49,22.81c.38.21.87.33,1.37.33v-22.18c0-2.02.26-4.11.74-6.21l-42.24-24.39c-.47,2.1-.73,4.19-.73,6.2v21.06c0,.87.62,1.94,1.37,2.38Z"/>
        <path class="cls-17" d="m85.21,255.44c-1.55,3.86-2.45,7.9-2.45,11.68v22.18c-.17,0-.34-.02-.5-.05,0-1.28-.02-8.4-.02-22.13,0-16.32,12.55-26.69,16-27.97-4.45,2.56-8.46,7.19-11.27,12.51-.66,1.23-1.24,2.5-1.76,3.78Z"/>
        <path class="cls-4" d="m85.21,255.44c-1.55,3.86-2.45,7.9-2.45,11.68v22.18c-.17,0-.34-.02-.5-.05,0-1.28-.02-8.4-.02-22.13,0-16.32,12.55-26.69,16-27.97-4.45,2.56-8.46,7.19-11.27,12.51-.66,1.23-1.24,2.5-1.76,3.78Z"/>
      </g>
      <path class="cls-17" d="m84.76,286.77c-.23.13-.41.02-.41-.24v-19.41c0-3.38.78-7.14,2.25-10.88.03-.07.05-.14.08-.21.55-1.38,1.18-2.72,1.88-4,2.74-5.06,6.48-9.21,10.47-11.51,2.05-1.19,3.99-1.79,5.77-1.79,1.12,0,2.14.25,3.04.73,2.7,1.44,4.28,4.92,4.28,9.79v21.24c0,.26-.18.58-.41.71l.62,1.47s.1-.06.14-.09c.21-.14.4-.33.57-.55,0,0,0,0,0,0,.4-.5.66-1.16.66-1.74v-21.05c0-5.63-1.99-9.55-5.15-11.21-2.74-1.43-6.35-1.18-10.31,1.11-4.45,2.56-8.46,7.19-11.27,12.51-.65,1.23-1.24,2.49-1.75,3.78-1.55,3.86-2.45,7.9-2.45,11.68v22.17c.08,0,.16,0,.24,0,.42-.03.82-.14,1.14-.32l.62-2.19Z"/>
      <path class="cls-26" d="m84.76,286.77c-.23.13-.41.02-.41-.24v-19.41c0-3.38.78-7.14,2.25-10.88.03-.07.05-.14.08-.21.55-1.38,1.18-2.72,1.88-4,2.74-5.06,6.48-9.21,10.47-11.51,2.05-1.19,3.99-1.79,5.77-1.79,1.12,0,2.14.25,3.04.73,2.7,1.44,4.28,4.92,4.28,9.79v21.24c0,.26-.18.58-.41.71l.62,1.47s.1-.06.14-.09c.21-.14.4-.33.57-.55,0,0,0,0,0,0,.4-.5.66-1.16.66-1.74v-21.05c0-5.63-1.99-9.55-5.15-11.21-2.74-1.43-6.35-1.18-10.31,1.11-4.45,2.56-8.46,7.19-11.27,12.51-.65,1.23-1.24,2.49-1.75,3.78-1.55,3.86-2.45,7.9-2.45,11.68v22.17c.08,0,.16,0,.24,0,.42-.03.82-.14,1.14-.32l.62-2.19Z"/>
    </g>
  </g>
  <g id="Envelopes">
    <g id="Envelope">
      <g id="Letter-4" data-name="Letter">
        <path class="cls-17" d="m178.94,229.88c0-1.66,1.16-3.67,2.6-4.5l128.17-74c1.43-.83,3.76-.83,5.2,0l2.93,1.69c1.43.83,2.6,2.84,2.6,4.5v101.88c0,1.65-1.17,3.67-2.6,4.5l-128.17,74c-1.43.83-3.77.83-5.2,0l-2.93-1.69c-1.43-.83-2.6-2.85-2.6-4.5v-101.88Z"/>
        <g class="cls-1">
          <path class="cls-18" d="m178.94,229.88c0-1.66,1.16-3.67,2.6-4.5l128.17-74c1.43-.83,3.76-.83,5.2,0l2.93,1.69c1.43.83,2.6,2.84,2.6,4.5v101.88c0,1.65-1.17,3.67-2.6,4.5l-128.17,74c-1.43.83-3.77.83-5.2,0l-2.93-1.69c-1.43-.83-2.6-2.85-2.6-4.5v-101.88Z"/>
        </g>
        <path class="cls-17" d="m179.7,227.32l7.37,4.25,132.6-76.56c-.47-.81-1.12-1.52-1.83-1.94l-2.94-1.68c-1.43-.84-3.76-.84-5.19,0l-128.17,73.99c-.73.42-1.38,1.13-1.84,1.94Z"/>
        <path class="cls-12" d="m179.7,227.32l7.37,4.25,132.6-76.56c-.47-.81-1.12-1.52-1.83-1.94l-2.94-1.68c-1.43-.84-3.76-.84-5.19,0l-128.17,73.99c-.73.42-1.38,1.13-1.84,1.94Z"/>
        <path class="cls-2" d="m178.94,229.87v101.88c0,1.66,1.17,3.67,2.61,4.5l2.93,1.7c.22.12.45.23.71.32.33.11.69.2,1.07.25.68.09,1.39.06,2.05-.07.17-.04.35-.08.51-.13.11-.04.23-.07.32-.11-.48.17-.91.13-1.26-.05-.49-.26-.8-.85-.8-1.71v-101.88c0-1.07.54-1.88,1.35-2.21l-1.35-.79-7.37-4.25c-.47.81-.76,1.73-.76,2.56Z"/>
        <path class="cls-5" d="m178.94,229.87v101.88c0,1.66,1.17,3.67,2.61,4.5l2.93,1.7c.22.12.45.23.71.32.33.11.69.2,1.07.25.68.09,1.39.06,2.05-.07.17-.04.35-.08.51-.13.11-.04.23-.07.32-.11-.48.17-.91.13-1.26-.05-.49-.26-.8-.85-.8-1.71v-101.88c0-1.07.54-1.88,1.35-2.21l-1.35-.79-7.37-4.25c-.47.81-.76,1.73-.76,2.56Z"/>
        <path class="cls-16" d="m187.07,231.57l61.55,23c4.39,1.63,9.32.01,11.87-3.91l9.88-15.14,49.29-80.5-47.32,81.07,48.08,23.41c-.01.84-.32,1.77-.81,2.59l-47.42-25.77-11.49,18.38c-2.64,4.22-7.98,5.86-12.52,3.85l-8.18-3.61-52.14,83.22c-.49-.26-.8-.85-.8-1.71v-1.7l52.69-79.92-52.69-23.26Z"/>
        <path class="cls-5" d="m187.07,231.57l61.55,23c4.39,1.63,9.32.01,11.87-3.91l9.88-15.14,49.29-80.5-47.32,81.07,48.08,23.41c-.01.84-.32,1.77-.81,2.59l-47.42-25.77-11.49,18.38c-2.64,4.22-7.98,5.86-12.52,3.85l-8.18-3.61-52.14,83.22c-.49-.26-.8-.85-.8-1.71v-1.7l52.69-79.92-52.69-23.26Z"/>
      </g>
    </g>
    <g id="Envelope-2" data-name="Envelope">
      <g id="Letter-5" data-name="Letter">
        <path class="cls-17" d="m211.44,248.66c0-1.66,1.16-3.67,2.6-4.5l128.17-74c1.43-.83,3.76-.83,5.2,0l2.93,1.69c1.43.83,2.6,2.84,2.6,4.5v101.88c0,1.65-1.17,3.67-2.6,4.5l-128.17,74c-1.43.82-3.77.82-5.2,0l-2.93-1.69c-1.43-.82-2.6-2.85-2.6-4.5v-101.88Z"/>
        <g class="cls-28">
          <path class="cls-18" d="m211.44,248.66c0-1.66,1.16-3.67,2.6-4.5l128.17-74c1.43-.83,3.76-.83,5.2,0l2.93,1.69c1.43.83,2.6,2.84,2.6,4.5v101.88c0,1.65-1.17,3.67-2.6,4.5l-128.17,74c-1.43.82-3.77.82-5.2,0l-2.93-1.69c-1.43-.82-2.6-2.85-2.6-4.5v-101.88Z"/>
        </g>
        <path class="cls-17" d="m212.19,246.1l7.37,4.25,132.6-76.56c-.47-.81-1.12-1.52-1.83-1.94l-2.94-1.68c-1.43-.84-3.76-.84-5.19,0l-128.17,73.99c-.73.42-1.38,1.13-1.84,1.94Z"/>
        <path class="cls-19" d="m212.19,246.1l7.37,4.25,132.6-76.56c-.47-.81-1.12-1.52-1.83-1.94l-2.94-1.68c-1.43-.84-3.76-.84-5.19,0l-128.17,73.99c-.73.42-1.38,1.13-1.84,1.94Z"/>
        <path class="cls-26" d="m211.43,248.65v101.88c0,1.66,1.17,3.67,2.61,4.5l2.93,1.7c.22.12.45.23.71.32.33.11.69.2,1.07.25.68.09,1.39.06,2.05-.07.17-.04.34-.09.5-.14.11-.04.21-.07.31-.12-.48.17-.9.15-1.24-.02-.49-.26-.8-.85-.8-1.71v-101.88c0-1.07.54-1.88,1.35-2.21l-1.35-.79-7.37-4.25c-.47.81-.76,1.73-.76,2.56Z"/>
        <path class="cls-25" d="m219.57,250.35l61.55,23c4.39,1.63,9.32.01,11.87-3.91l9.88-15.14,49.29-80.5-47.32,81.07,48.08,23.41c-.01.84-.32,1.77-.81,2.59l-47.42-25.77-11.49,18.38c-2.64,4.22-7.98,5.86-12.52,3.85l-8.18-3.61-52.14,83.22c-.49-.26-.8-.85-.8-1.71v-1.7l52.69-79.92-52.69-23.26Z"/>
        <path class="cls-5" d="m219.57,250.35l61.55,23c4.39,1.63,9.32.01,11.87-3.91l9.88-15.14,49.29-80.5-47.32,81.07,48.08,23.41c-.01.84-.32,1.77-.81,2.59l-47.42-25.77-11.49,18.38c-2.64,4.22-7.98,5.86-12.52,3.85l-8.18-3.61-52.14,83.22c-.49-.26-.8-.85-.8-1.71v-1.7l52.69-79.92-52.69-23.26Z"/>
      </g>
    </g>
  </g>
  <g id="Open_Envelope" data-name="Open Envelope">
    <g id="Open_Envelope-2" data-name="Open Envelope">
      <g>
        <path class="cls-17" d="m244.2,268.26l133.38-77.01,5.34,3.08c1.38.8,2.51,2.75,2.51,4.35v98.39c0,1.59-1.13,3.55-2.51,4.35l-128.36,74.11c-1.38.8-3.64.8-5.02,0l-2.83-1.63c-1.38-.8-2.51-2.75-2.51-4.35v-101.29Z"/>
        <path class="cls-15" d="m244.2,268.26l133.38-77.01,5.34,3.08c1.38.8,2.51,2.75,2.51,4.35v98.39c0,1.59-1.13,3.55-2.51,4.35l-128.36,74.11c-1.38.8-3.64.8-5.02,0l-2.83-1.63c-1.38-.8-2.51-2.75-2.51-4.35v-101.29Z"/>
        <path class="cls-17" d="m376.85,182.6l.55-.3-2.07-1.2h0c-.18-.1-.36-.19-.55-.26l-58.7-21.75c-1.55-.58-3.57.07-4.51,1.43l-65.66,95.89c-.94,1.37-1.69,3.82-1.69,5.47,0,2.74,0,6.37,0,6.37l2.04,1.18,131.35-78.19v-6.37c0-.78-.28-1.58-.74-2.28Z"/>
        <path class="cls-26" d="m314.28,160.98c-.26.2-.49.45-.68.72l-65.67,95.89c-.48.71-.92,1.71-1.22,2.74l-2.04-1.18c.15-.5.33-.99.53-1.45.01-.02.01-.03.02-.04.09-.2.18-.39.28-.58.02-.03.03-.06.05-.09.11-.21.23-.41.35-.58l65.66-95.89c.1-.15.21-.27.33-.4.11-.11.23-.22.35-.32l2.04,1.18Z"/>
        <path class="cls-27" d="m377.37,182.29c-.18-.11-.37-.2-.56-.27l-58.71-21.76c-1.24-.46-2.78-.14-3.82.72l-2.04-1.18c1.05-.85,2.58-1.18,3.83-.72l58.7,21.75c.19.07.37.16.55.27l2.05,1.19Z"/>
        <g>
          <path class="cls-17" d="m245.55,256.99c.11-.21.23-.4.35-.58-.12.18-.24.37-.35.58Z"/>
          <path class="cls-17" d="m311.89,160.12c.11-.11.23-.22.35-.32-.12.1-.24.2-.35.32Z"/>
          <path class="cls-17" d="m244.67,259.15c.15-.5.33-1,.53-1.45-.2.46-.38.95-.53,1.45Z"/>
          <path class="cls-17" d="m245.22,257.66c.09-.2.18-.39.28-.57-.1.18-.19.37-.28.57Z"/>
          <path class="cls-15" d="m245.2,257.7s.01-.03.02-.04c0,.01-.01.03-.02.04Z"/>
          <polygon class="cls-15" points="244.67 259.15 244.67 259.15 244.67 259.15 244.67 259.15"/>
          <polygon class="cls-15" points="312.24 159.8 312.24 159.8 312.24 159.8 312.24 159.8"/>
          <path class="cls-15" d="m245.5,257.08s.03-.07.05-.1c-.02.03-.03.06-.05.1Z"/>
          <path class="cls-15" d="m311.56,160.52c.1-.14.21-.27.33-.4-.12.12-.23.25-.33.4Z"/>
        </g>
        <path class="cls-17" d="m313.6,161.7l-65.66,95.89c-.94,1.37-1.69,3.82-1.69,5.47,0,2.74,0,6.37,0,6.37l133.38-77.01v-6.36c0-1.66-1.26-3.47-2.81-4.04l-58.7-21.75c-1.55-.58-3.57.07-4.51,1.43Z"/>
        <path class="cls-5" d="m379.62,186.06c0-.76-.27-1.55-.71-2.24l-132.2,76.51s0,.01-.01.02c-.28.95-.46,1.92-.46,2.71v6.37l133.38-77.01v-6.36Z"/>
      </g>
      <g>
        <path class="cls-14" d="m373.92,159.03c0-.69-.24-1.17-.63-1.4-.39-.23-3.68-2.12-4.07-2.35-.39-.23-.93-.19-1.53.15l-109.4,63.16c-1.2.69-2.17,2.37-2.16,3.75v131.02c0,.69.24,1.17.63,1.4.39.23,3.67,2.12,4.06,2.35.39.23.93.19,1.53-.15l109.4-63.16c1.2-.69,2.17-2.37,2.17-3.75v-131.02Z"/>
        <path class="cls-20" d="m262.35,356.97l109.4-63.16c1.2-.69,2.17-2.37,2.17-3.75v-131.02c0-1.38-.97-1.94-2.17-1.25l-109.4,63.16c-1.2.69-2.17,2.37-2.17,3.75v131.02c0,1.38.97,1.94,2.17,1.25Z"/>
        <path class="cls-17" d="m332.47,232.96c-.12,1.55-.39,3-.82,4.36-.43,1.36-.96,2.58-1.58,3.66-.62,1.08-1.31,2.01-2.06,2.79-.76.78-1.52,1.36-2.29,1.76-1.37.7-2.42.95-3.15.76-.73-.19-1.28-.53-1.63-1.02-.24.51-.48,1.03-.75,1.56-.26.53-.59,1.05-.99,1.57-.4.52-.89,1.02-1.47,1.52-.58.49-1.3.96-2.15,1.39-1.01.52-1.92.7-2.72.54-.8-.16-1.47-.63-2.02-1.41-.55-.78-.95-1.84-1.2-3.18-.26-1.34-.35-2.93-.27-4.77.07-1.84.29-3.59.65-5.25.36-1.66.84-3.16,1.43-4.52.59-1.36,1.3-2.55,2.14-3.56.83-1.01,1.76-1.78,2.77-2.3,1.12-.57,1.95-.75,2.48-.53.53.22.96.62,1.28,1.2l.02-.54c.02-.44.14-.87.37-1.31.23-.43.5-.73.8-.88l2.14-1.09c.3-.15.56-.13.76.08.2.21.3.53.28.97l-.51,12.79c-.04.96.14,1.59.55,1.9.4.3.88.32,1.43.03.55-.28,1.03-.79,1.45-1.54.42-.74.68-1.77.79-3.08.1-1.11.17-2.25.22-3.44.05-1.18.05-2.27.01-3.27-.08-2.12-.34-3.88-.79-5.3-.45-1.42-1.12-2.44-1.99-3.07-.87-.63-1.99-.87-3.35-.73-1.36.15-2.99.7-4.88,1.67-1.59.81-3.03,1.87-4.32,3.18-1.29,1.31-2.41,2.78-3.36,4.42-.95,1.65-1.73,3.43-2.35,5.35-.61,1.92-1.04,3.89-1.28,5.89-.08.55-.14,1.26-.19,2.12-.05.87-.09,1.77-.13,2.71-.04.94-.07,1.85-.09,2.72-.02.87-.02,1.58.02,2.11.09,1.84.37,3.42.86,4.74.48,1.32,1.16,2.34,2.01,3.06.86.72,1.9,1.09,3.14,1.1,1.23.02,2.65-.38,4.24-1.2,1.12-.57,2.1-1.15,2.93-1.73.83-.58,1.56-1.17,2.18-1.77.63-.6,1.17-1.18,1.62-1.74.45-.56.86-1.12,1.23-1.66.31-.47.56-.83.75-1.06.18-.23.43-.42.73-.58l3.04-1.56c.3-.15.56-.14.78.04.22.18.31.54.26,1.07-.01.32-.12.67-.32,1.05-.61,1.14-1.3,2.33-2.06,3.58-.76,1.25-1.66,2.48-2.7,3.68-1.04,1.2-2.27,2.38-3.68,3.53-1.42,1.15-3.08,2.22-5,3.21-2.38,1.22-4.46,1.78-6.23,1.69-1.77-.1-3.24-.7-4.42-1.8-1.18-1.1-2.08-2.62-2.7-4.56-.62-1.94-.96-4.13-1.03-6.56,0-.55,0-1.29.03-2.22.02-.93.06-1.91.1-2.93.04-1.02.09-1.99.14-2.92.05-.93.1-1.66.15-2.19.24-2.55.75-5.16,1.54-7.82.79-2.66,1.85-5.19,3.18-7.6,1.33-2.41,2.93-4.61,4.79-6.6,1.86-1.99,3.99-3.6,6.37-4.82,2.8-1.43,5.15-2.14,7.05-2.14,1.91,0,3.45.55,4.63,1.63,1.18,1.08,2.03,2.63,2.55,4.64.52,2.01.81,4.29.87,6.85.01,1.01,0,2.21-.06,3.59-.06,1.38-.13,2.63-.23,3.74Zm-18.78,7.31c-.08,1.96.12,3.35.6,4.16.48.82,1.19.98,2.15.49,1.01-.52,1.8-1.44,2.35-2.76.55-1.32.86-2.98.94-4.98.08-1.96-.12-3.36-.58-4.2-.46-.84-1.2-1-2.22-.48-.96.49-1.72,1.42-2.29,2.79-.57,1.37-.89,3.03-.96,4.99Z"/>
        <path class="cls-10" d="m260.18,355.72c0,.61.19,1.06.51,1.32-.73-.41-3.57-2.06-3.93-2.26-.4-.23-.64-.71-.64-1.4v-131.03c0-.69.24-1.45.64-2.13l4.06,2.34c-.4.68-.64,1.45-.64,2.14v131.02Z"/>
      </g>
      <g>
        <path class="cls-17" d="m382.05,298.38c-.04.07-.08.13-.14.2l-55.58-17.62c-4.37-1.94-9.48-.36-12.01,3.7l-59.42,88.32-2.2,1.27h-.02c-.67.38-1.26.43-1.7.2l61.11-91.03c2.54-4.06,7.66-5.64,12.02-3.71l57.94,18.68Z"/>
        <path class="cls-3" d="m308.84,293.32l.14-.12-54.09,79.77-2.2,1.27h-.02c-.66.38-1.26.42-1.7.2l55.73-82.4,2.14,1.28Z"/>
        <path class="cls-3" d="m382.05,298.38c-.04.07-.08.13-.14.2l-55.59-17.63c-4.36-1.94-9.47-.36-12.01,3.7l-2.2-1.28c2.54-4.04,7.64-5.6,12-3.68l57.94,18.69Z"/>
        <path class="cls-17" d="m385.38,198.05h-.01c-.12-.72-.5-.92-.99-.58-.19.13-.41.35-.64.66l-.28.39-54.85,83.39-8.19,11.41c-.92,1.3-2.94,2.05-4.51,1.69l-7.07-1.68-53.97-19.87c-.39-.09-.76-.1-1.1-.04-.14.03-.28.07-.41.13l2.03-1.18,51.74,18.96,6.81,2.43c1.56.37,3.58-.38,4.51-1.69l8.19-11.4,55.12-83.78c.18-.25.4-.43.62-.57l-4.77-2.75,2-1.15,3.3,1.9c1.2.7,2.21,2.27,2.46,3.72Z"/>
        <path class="cls-3" d="m328.61,281.9l-8.19,11.41c-.92,1.3-2.94,2.05-4.51,1.69l-7.07-1.68.14-.12.34-.54,4.63,1.1c1.56.37,3.58-.38,4.51-1.69l8.11-11.28,2.04,1.11Z"/>
        <path class="cls-26" d="m382.92,194.32l-3.3-1.9-2,1.15,4.77,2.75s0,0,.01,0h0c-.24.15-.45.33-.62.57l-55.12,83.77-.08.11h0s2.04,1.12,2.04,1.12l54.85-83.39.28-.39c.23-.31.45-.53.64-.66.49-.34.87-.14.99.58h.01c-.25-1.45-1.26-3.02-2.46-3.72Z"/>
        <path class="cls-17" d="m255.97,275.05l-11.77-6.8v101.29c0,1.59,1.13,3.55,2.51,4.35l2.83,1.63c1.38.8,3.64.8,5.02,0l1.41-.82v-99.66Z"/>
        <path class="cls-23" d="m255.97,275.05l-11.77-6.8v101.29c0,1.59,1.13,3.55,2.51,4.35l2.83,1.63c1.38.8,3.64.8,5.02,0l1.41-.82v-99.66Z"/>
        <path class="cls-17" d="m385.43,198.68v98.39c0,.83-.3,1.74-.78,2.54-.4.66-.9,1.25-1.47,1.65l-.1.05c-.06.04-.1.08-.16.11l-128.36,74.1h-.02c-.67.39-1.27.44-1.71.21-.39-.2-.66-.61-.75-1.2-.02-.14-.03-.29-.03-.45v-98.4c0-1.59,1.25-2.59,2.82-2.22l53.97,19.87,7.07,1.68c1.57.36,3.59-.39,4.51-1.69l8.19-11.41,54.85-83.39.28-.39c.93-1.29,1.69-1.05,1.69.55Z"/>
        <path class="cls-17" d="m382.92,301.42c.06-.03.11-.07.16-.11l.1-.06c.57-.4,1.07-.99,1.47-1.64.47-.79.77-1.69.78-2.5l-56.81-15.21,38.05,28.9,16.26-9.39Z"/>
        <path class="cls-15" d="m382.92,301.42c.06-.03.11-.07.16-.11l.1-.06c.57-.4,1.07-.99,1.47-1.64.47-.79.77-1.69.78-2.5l-56.81-15.21,38.05,28.9,16.26-9.39Z"/>
        <path class="cls-17" d="m252.05,374.07c0,.83.3,1.4.78,1.65.44.23,1.04.18,1.71-.19h.02s44.19-25.52,44.19-25.52l10.09-56.69-56.79,79.11v1.64Z"/>
        <path class="cls-23" d="m314.29,284.64l-61.46,91.08c-.48-.25-.78-.82-.78-1.65v-1.64s60.04-89.04,60.04-89.04c0-.01,0-.02.02-.03l2.18,1.27Z"/>
        <path class="cls-17" d="m384.65,299.61c-.4.66-.9,1.25-1.47,1.64l-.1.06-128.52,74.21h-.02c-.67.39-1.27.43-1.71.2l61.47-91.1c2.55-4.07,7.69-5.65,12.08-3.71l58.27,18.69Z"/>
        <path class="cls-23" d="m244.67,259.15l2.04,1.18c-.29.96-.47,1.94-.47,2.74v6.36l-2.04-1.18v-6.37c0-.79.18-1.77.47-2.73Z"/>
        <polygon class="cls-17" points="255.4 272.37 253.36 273.55 251.3 272.36 246.23 269.44 248.2 268.27 255.4 272.37"/>
        <path class="cls-26" d="m255.49,272.41l-7.28-4.14-1.97,1.17,5.07,2.92,2.06,1.19h.02c.12-.07.25-.11.39-.13.34-.06.71-.05,1.1.04l4.1,1.51,47.11,17.34.74-1.09-51.33-18.81Z"/>
      </g>
    </g>
  </g>
  <g id="Clouds">
    <g id="Clouds-2" data-name="Clouds">
      <g id="Cloud">
        <path class="cls-14" d="m145.03,102.07l-7.62,4.4c.04-.34.06-.68.06-1.01v-2.21c0-3.93-2.76-5.52-6.16-3.56-1.38.8-2.64,2.06-3.67,3.53-.56-4.94-4.43-6.78-9.14-4.06-5.09,2.94-9.21,10.08-9.21,15.96v3.3c0,1.52.28,2.8.78,3.83l-6.33,3.65c-1.89,1.09-3.42,3.74-3.42,5.92s1.53,3.06,3.42,1.97l41.28-23.84c1.89-1.09,3.42-3.74,3.42-5.92s-1.53-3.06-3.42-1.97Z"/>
      </g>
      <g id="Cloud-2" data-name="Cloud">
        <path class="cls-14" d="m108.14,76.96l-9.38,5.41c.05-.42.08-.83.08-1.24v-2.72c0-4.84-3.39-6.8-7.58-4.38-1.7.98-3.26,2.53-4.52,4.35-.69-6.08-5.46-8.34-11.25-5-6.26,3.62-11.34,12.41-11.34,19.65v4.06c0,1.87.35,3.45.96,4.71l-7.79,4.5c-2.32,1.34-4.21,4.6-4.21,7.28s1.88,3.77,4.21,2.43l50.82-29.34c2.32-1.34,4.21-4.6,4.21-7.28s-1.88-3.77-4.21-2.43Z"/>
      </g>
    </g>
  </g>
  <g id="Paper_Plane" data-name="Paper Plane">
    <g id="Paper_Plane-2" data-name="Paper Plane">
      <polygon class="cls-17" points="404.96 164.72 440.33 142.07 455.92 147.07 404.96 164.72"/>
      <polygon class="cls-17" points="404.96 164.72 435.53 139.22 428.74 131.38 404.96 164.72"/>
      <polygon class="cls-17" points="435.53 139.22 435.53 145.14 404.96 164.72 435.53 139.22"/>
      <polygon class="cls-6" points="435.53 139.22 435.53 145.14 404.96 164.72 435.53 139.22"/>
      <path class="cls-10" d="m440.63,138.73c-.2,0-.4-.08-.55-.24-.28-.3-.26-.78.04-1.06,1.05-.97,2.02-2.03,2.89-3.15.25-.33.72-.39,1.05-.13.33.25.39.72.13,1.05-.92,1.18-1.94,2.31-3.06,3.34-.14.13-.33.2-.51.2Zm5.63-7.47c-.11,0-.23-.03-.33-.08-.37-.19-.52-.64-.34-1.01.87-1.73,1.53-3.57,1.98-5.46.09-.4.5-.65.9-.56.4.1.65.5.56.9-.47,2.01-1.18,3.96-2.1,5.79-.13.26-.4.41-.67.41Zm2.73-10.57s-.02,0-.03,0c-.41-.02-.73-.37-.72-.78.02-.4.03-.81.03-1.21,0-1.53-.13-3.08-.39-4.61-.07-.41.21-.8.61-.86.4-.07.79.21.86.61.27,1.61.41,3.25.41,4.86,0,.43,0,.85-.03,1.28-.02.4-.35.72-.75.72Zm-1.61-10.81c-.31,0-.6-.19-.71-.5-.63-1.81-1.44-3.61-2.42-5.33-.2-.36-.08-.82.28-1.02.36-.21.82-.08,1.02.28,1.02,1.8,1.88,3.68,2.54,5.58.14.39-.07.82-.46.95-.08.03-.16.04-.25.04Zm-5.25-9.61c-.22,0-.45-.1-.59-.29-1.17-1.52-2.5-2.99-3.94-4.36-.3-.29-.31-.76-.03-1.06.28-.3.76-.31,1.06-.03,1.5,1.43,2.88,2.95,4.1,4.53.25.33.19.8-.14,1.05-.14.11-.3.16-.46.16Zm-7.83-7.68c-.16,0-.32-.05-.45-.15-1.53-1.16-3.19-2.25-4.92-3.25-.36-.21-.48-.67-.27-1.02.21-.36.66-.48,1.02-.27,1.79,1.03,3.5,2.16,5.08,3.36.33.25.4.72.15,1.05-.15.19-.37.3-.6.3Zm-78.59-2.9c-.26,0-.51-.13-.65-.38-.21-.36-.08-.82.27-1.02,1.74-1,3.54-1.95,5.37-2.81.38-.18.82-.02,1,.36.18.37.02.82-.36,1-1.79.84-3.56,1.77-5.26,2.75-.12.07-.25.1-.37.1Zm69.17-2.74c-.11,0-.22-.02-.33-.07-1.78-.86-3.61-1.65-5.45-2.36-.39-.15-.58-.58-.43-.97.15-.39.58-.58.97-.43,1.88.72,3.75,1.53,5.56,2.41.37.18.53.63.35,1-.13.27-.4.42-.68.42Zm-59.27-2.02c-.3,0-.58-.18-.7-.48-.15-.39.04-.82.42-.97,1.87-.73,3.8-1.4,5.73-1.98.39-.12.81.11.93.5.12.4-.1.82-.5.93-1.89.57-3.78,1.22-5.61,1.94-.09.04-.18.05-.27.05Zm49.04-1.99c-.07,0-.15-.01-.22-.03-1.88-.57-3.81-1.08-5.74-1.5-.4-.09-.66-.49-.57-.89.09-.41.49-.66.89-.57,1.97.43,3.94.94,5.86,1.53.4.12.62.54.5.94-.1.32-.4.53-.72.53Zm-38.54-1.25c-.34,0-.65-.23-.73-.58-.09-.4.16-.81.56-.9,1.96-.45,3.96-.83,5.95-1.12.4-.06.79.22.85.63.06.41-.22.79-.63.85-1.95.29-3.92.66-5.84,1.1-.06.01-.11.02-.17.02Zm27.82-1.15s-.07,0-.11,0c-1.95-.29-3.93-.49-5.91-.62-.41-.03-.73-.38-.7-.8.03-.41.38-.73.8-.7,2.01.13,4.04.34,6.02.63.41.06.69.44.63.85-.05.37-.38.64-.74.64Zm-16.96-.53c-.39,0-.71-.3-.75-.69-.03-.41.27-.77.69-.81,2.01-.16,4.04-.25,6.05-.25h0c.41,0,.75.33.75.75,0,.41-.33.75-.75.75-1.97,0-3.96.09-5.93.25-.02,0-.04,0-.06,0Z"/>
    </g>
  </g>
</svg>